<svg width="28" height="28" viewBox="0 0 28 28" fill="none" xmlns="http://www.w3.org/2000/svg">
<g clip-path="url(#clip0_69_715)">
<path d="M10.0348 2.48777C9.38555 2.61343 8.75725 3.12653 8.44834 3.77577C8.28603 4.12133 8.2808 4.15798 8.26509 4.95382L8.24415 5.78107H5.36971C3.44294 5.78107 2.41149 5.80201 2.22301 5.83867C1.54759 5.98527 0.966419 6.43554 0.657509 7.06384L0.479492 7.43034V9.73408V12.0378L0.657509 12.3886C0.872175 12.818 1.30151 13.2421 1.73608 13.4567L2.05022 13.6086L6.85667 13.6243L11.6579 13.6347V13.2682C11.6579 12.9384 11.6736 12.886 11.8097 12.7342L11.9615 12.5614H13.8569H15.7522L15.9041 12.7342C16.0402 12.886 16.0559 12.9384 16.0559 13.2682V13.6347L20.8624 13.6243L25.6636 13.6086L25.9777 13.4567C26.4123 13.2421 26.8416 12.818 27.0563 12.3886L27.2343 12.0378V9.73408V7.43034L27.0563 7.06384C26.7474 6.43554 26.1662 5.98527 25.4908 5.83867C25.3023 5.80201 24.2709 5.78107 22.3441 5.78107H19.4697L19.4487 4.95382C19.433 4.15798 19.4278 4.12133 19.2655 3.77577C18.9461 3.10559 18.323 2.61343 17.6319 2.48253C17.2811 2.4197 10.3699 2.4197 10.0348 2.48777ZM17.2078 5.25749V5.78107H13.8569H10.506V5.25749V4.73392H13.8569H17.2078V5.25749Z" fill="url(#paint0_linear_69_715)"/>
<path d="M0.678544 14.263C0.5843 14.3206 0.495292 14.4201 0.479585 14.4829C0.463877 14.551 0.458642 16.5354 0.463877 18.8967L0.479585 23.19L0.652365 23.5461C0.966512 24.1796 1.54768 24.6351 2.2231 24.7817C2.42206 24.8236 5.64729 24.8393 13.8727 24.8393C26.2815 24.8393 25.5014 24.8603 26.1192 24.5461C26.4804 24.3629 26.8522 23.9702 27.0616 23.5461L27.2344 23.19L27.2501 18.8967C27.2553 16.5354 27.2501 14.551 27.2344 14.4829C27.1977 14.3311 26.915 14.1583 26.6951 14.1583C26.5852 14.1583 26.3914 14.2369 26.1715 14.3678C25.983 14.4829 25.7422 14.6086 25.6375 14.64C25.5014 14.6871 24.2762 14.7081 20.7577 14.7238L16.056 14.7395V15.6715C16.056 16.5301 16.0455 16.6139 15.9513 16.7396C15.8885 16.8181 15.7523 16.9019 15.6476 16.9333C15.5324 16.9647 14.789 16.9856 13.857 16.9856C12.925 16.9856 12.1815 16.9647 12.0664 16.9333C11.9616 16.9019 11.8255 16.8181 11.7627 16.7396C11.6684 16.6139 11.658 16.5301 11.658 15.6715V14.7395L6.96147 14.7238C3.4378 14.7081 2.21263 14.6871 2.0765 14.64C1.97178 14.6086 1.73094 14.4829 1.54245 14.3678C1.14453 14.1321 0.935097 14.106 0.678544 14.263Z" fill="url(#paint1_linear_69_715)"/>
</g>
<defs>
<linearGradient id="paint0_linear_69_715" x1="27.2343" y1="8.03539" x2="0.479492" y2="8.03539" gradientUnits="userSpaceOnUse">
<stop stop-color="#3596FF"/>
<stop offset="1" stop-color="#B3ACFF"/>
</linearGradient>
<linearGradient id="paint1_linear_69_715" x1="27.2521" y1="19.499" x2="0.461914" y2="19.499" gradientUnits="userSpaceOnUse">
<stop stop-color="#3596FF"/>
<stop offset="1" stop-color="#B3ACFF"/>
</linearGradient>
<clipPath id="clip0_69_715">
<rect width="26.8072" height="26.8072" fill="white" transform="translate(0.453125 0.231171)"/>
</clipPath>
</defs>
</svg>
