<svg width="64" height="64" viewBox="0 0 64 64" fill="none" xmlns="http://www.w3.org/2000/svg">
<path d="M50.9528 6.53646L47.4762 10.013L47.6612 11.3074L47.8461 12.5896L40.0547 20.3809L32.2757 28.16L31.7702 27.9874C31.4004 27.8518 30.8703 27.8148 29.958 27.8518C28.7621 27.8888 28.5772 27.9258 27.8006 28.3079C25.6308 29.3805 24.3733 31.7598 24.7555 34.0652C25.15 36.4815 26.9746 38.306 29.4032 38.7005C31.6962 39.0827 34.1126 37.8006 35.1481 35.6308C35.5056 34.8911 35.5673 34.6446 35.6043 33.535C35.6412 32.6228 35.6043 32.1296 35.4686 31.7351L35.2837 31.1927L43.0751 23.4013L50.8665 15.61L52.1733 15.7825L53.4924 15.9428L56.9689 12.4663C60.1002 9.33494 60.4208 8.97742 60.1496 8.91578C59.9893 8.8788 58.9167 8.73086 57.7579 8.59525C56.6114 8.44732 55.5512 8.28705 55.4156 8.23774C55.1936 8.13911 55.132 7.88022 54.8731 5.8091C54.7129 4.52697 54.5403 3.38046 54.5033 3.2695C54.4416 3.09691 53.6526 3.82427 50.9528 6.53646Z" fill="url(#paint0_linear_69_1520)"/>
<path d="M26.5674 6.08026C22.721 6.59804 18.7514 8.01577 15.6323 9.98827C1.96046 18.618 -1.41745 36.7896 8.23547 49.8204C9.32035 51.2875 11.9709 53.975 13.3763 55.0352C18.3938 58.82 24.0525 60.7432 30.1302 60.7432C44.7391 60.7432 56.7713 49.4136 57.5603 34.9281C57.7945 30.7242 57.1535 26.7299 55.6494 22.9821C55.0454 21.4781 53.9728 19.3823 53.5413 18.8522L53.2701 18.5193L51.0511 20.7384L48.832 22.9575L49.3744 24.067C52.2222 29.9722 52.1976 36.8636 49.3005 42.6331C46.2554 48.7232 41.0036 52.7669 34.2725 54.2339C33.1383 54.4681 32.6328 54.5051 30.2042 54.5051C27.0605 54.5051 26.0619 54.3572 23.4114 53.4696C17.1487 51.3861 12.1312 46.3686 9.99839 40.0812C6.92869 30.9584 10.3189 21.0096 18.3445 15.6099C24.5702 11.4307 32.5219 10.8266 39.253 14.0196L40.3502 14.5374L42.5446 12.3429C43.7651 11.1348 44.7514 10.0992 44.7514 10.0499C44.7514 9.88965 42.3721 8.61985 41.0529 8.06509C38.5503 7.0172 36.282 6.40079 33.7424 6.06793C31.9548 5.84602 28.281 5.84602 26.5674 6.08026Z" fill="url(#paint1_linear_69_1520)"/>
<path d="M28.2559 16.9783C21.8823 17.7796 16.6058 22.0945 14.6087 28.1106C13.9553 30.0708 13.758 31.5625 13.8443 33.9172C13.8936 35.4828 13.9799 36.1732 14.2265 37.1718C14.9908 40.2292 16.3469 42.6085 18.5783 44.8645C20.97 47.2809 24.0027 48.8712 27.3066 49.4506C28.7737 49.7095 31.5475 49.7095 33.0515 49.4506C42.125 47.8973 48.1782 38.8854 46.2303 29.8612C45.9468 28.6037 45.429 27.0011 45.2317 26.7792C45.1578 26.7052 44.2208 27.5559 42.7291 29.0476L40.3498 31.4269L40.4114 32.8076C40.547 35.8897 39.4498 38.5895 37.1938 40.7346C34.9747 42.8304 31.8557 43.8906 29.0202 43.4961C24.6684 42.892 21.3152 39.9456 20.2056 35.7664C19.8481 34.4103 19.8481 32.2159 20.2056 30.8475C21.4878 26.0395 25.8642 22.7725 30.6845 23.0438L31.7817 23.1054L34.2227 20.6644C35.5665 19.3207 36.639 18.1988 36.6144 18.1618C36.4541 18.0262 34.1857 17.3358 33.2735 17.1632C31.9913 16.929 29.4641 16.8304 28.2559 16.9783Z" fill="url(#paint2_linear_69_1520)"/>
<defs>
<linearGradient id="paint0_linear_69_1520" x1="60.2257" y1="21.0066" x2="24.6875" y2="21.0066" gradientUnits="userSpaceOnUse">
<stop stop-color="#3596FF"/>
<stop offset="1" stop-color="#B3ACFF"/>
</linearGradient>
<linearGradient id="paint1_linear_69_1520" x1="57.6073" y1="33.3231" x2="2.72461" y2="33.3231" gradientUnits="userSpaceOnUse">
<stop stop-color="#3596FF"/>
<stop offset="1" stop-color="#B3ACFF"/>
</linearGradient>
<linearGradient id="paint2_linear_69_1520" x1="46.5955" y1="33.2766" x2="13.8252" y2="33.2766" gradientUnits="userSpaceOnUse">
<stop stop-color="#3596FF"/>
<stop offset="1" stop-color="#B3ACFF"/>
</linearGradient>
</defs>
</svg>
