<svg width="48" height="54" viewBox="0 0 48 54" fill="none" xmlns="http://www.w3.org/2000/svg">
<path d="M22.8235 0.13063C22.4537 0.192268 21.8619 0.37719 21.4921 0.549782C21.1346 0.710049 16.8321 3.36057 11.9379 6.43026C5.5273 10.4492 2.86444 12.1875 2.42063 12.6313C0.842646 14.2216 0.448149 16.5886 1.42206 18.5487C1.6563 19.0295 1.97683 19.535 2.13709 19.6829C2.53159 20.0404 22.0222 32.2698 22.7003 32.578C23.4523 32.9232 24.6604 32.9232 25.4124 32.578C26.0781 32.2822 45.5688 20.0527 45.9633 19.6952C46.4194 19.2637 46.9742 18.0679 47.1344 17.1557C47.418 15.5037 46.8879 13.8394 45.692 12.6313C45.2482 12.1875 42.61 10.4615 36.1871 6.43026C31.2929 3.3729 26.9904 0.722374 26.6329 0.562111C25.5234 0.0566597 24.2043 -0.0912743 22.8235 0.13063ZM18.8909 17.5255C21.6277 19.2268 23.9577 20.6322 24.0563 20.6322C24.155 20.6322 26.485 19.2268 29.2218 17.5255C34.6831 14.123 34.6954 14.123 35.6077 14.6777C36.483 15.2201 36.8159 16.6502 36.2241 17.4145C35.8913 17.846 25.1782 24.5895 24.4755 24.8114C24.1919 24.8977 23.9207 24.8977 23.6495 24.8114C23.0454 24.6264 12.468 18.0309 12.0118 17.5501C10.9763 16.4776 11.8886 14.4312 13.4049 14.4188C13.8487 14.4188 14.4775 14.7763 18.8909 17.5255Z" fill="url(#paint0_linear_69_1376)"/>
<path d="M1.43425 24.7004C0.731552 26.1427 0.731552 27.8563 1.43425 29.2987C2.12462 30.6918 2.37118 30.8767 12.5295 37.2503C17.7566 40.5172 22.2686 43.328 22.5645 43.476C23.2056 43.8088 24.6726 43.8705 25.326 43.5869C26.1026 43.2664 45.0878 31.2712 45.5686 30.8027C46.6905 29.7179 47.3192 28.1029 47.1959 26.6235C47.122 25.8099 46.8014 24.7743 46.4686 24.2935C46.296 24.047 46.0987 24.1579 37.2349 29.7179C32.2543 32.8492 27.8532 35.586 27.4464 35.8202C26.3369 36.4243 25.4123 36.6462 24.0562 36.6462C22.8357 36.6462 21.8372 36.4366 20.9372 35.9682C20.666 35.8326 16.3512 33.1451 11.3337 30.0014C6.32848 26.8578 2.12462 24.2319 1.98901 24.1579C1.79176 24.047 1.71779 24.1209 1.43425 24.7004Z" fill="url(#paint1_linear_69_1376)"/>
<path d="M1.32358 35.623C0.472949 37.5092 0.929086 39.8392 2.42078 41.3556C2.86459 41.7994 5.51512 43.5253 11.9134 47.5319C16.7953 50.6016 21.0115 53.2151 21.2827 53.3384C22.762 54.0781 24.8701 54.1274 26.5344 53.4494C26.9043 53.3014 31.2314 50.6509 36.1503 47.5812C42.5979 43.5253 45.2484 41.7994 45.6922 41.3556C47.1962 39.8269 47.6523 37.4599 46.7771 35.6107L46.4319 34.8834L36.8407 40.9118C29.7274 45.3745 27.0275 47.0141 26.4235 47.2114C24.8455 47.7415 22.7497 47.6675 21.2827 47.0511C20.9498 46.9155 16.4501 44.154 11.297 40.9241C6.14385 37.6941 1.86602 35.019 1.79205 34.9697C1.70575 34.9203 1.52083 35.1669 1.32358 35.623Z" fill="url(#paint2_linear_69_1376)"/>
<defs>
<linearGradient id="paint0_linear_69_1376" x1="47.2093" y1="16.4337" x2="0.893555" y2="16.4337" gradientUnits="userSpaceOnUse">
<stop stop-color="#3596FF"/>
<stop offset="1" stop-color="#B3ACFF"/>
</linearGradient>
<linearGradient id="paint1_linear_69_1376" x1="47.2112" y1="33.9407" x2="0.907227" y2="33.9407" gradientUnits="userSpaceOnUse">
<stop stop-color="#3596FF"/>
<stop offset="1" stop-color="#B3ACFF"/>
</linearGradient>
<linearGradient id="paint2_linear_69_1376" x1="47.2193" y1="44.4053" x2="0.898438" y2="44.4053" gradientUnits="userSpaceOnUse">
<stop stop-color="#3596FF"/>
<stop offset="1" stop-color="#B3ACFF"/>
</linearGradient>
</defs>
</svg>
