<svg width="40" height="41" viewBox="0 0 40 41" fill="none" xmlns="http://www.w3.org/2000/svg">
<rect y="0.197266" width="40" height="40" rx="20" fill="white" fill-opacity="0.1"/>
<rect x="0.5" y="0.697266" width="39" height="39" rx="19.5" stroke="white" stroke-opacity="0.24"/>
<path d="M11.25 17.4224V24.5724C11.25 25.2354 11.5134 25.8713 11.9822 26.3401C12.4511 26.809 13.087 27.0724 13.75 27.0724H26.25C26.913 27.0724 27.5489 26.809 28.0178 26.3401C28.4866 25.8713 28.75 25.2354 28.75 24.5724V17.4224L21.31 21.9999C20.916 22.2422 20.4626 22.3706 20 22.3706C19.5374 22.3706 19.084 22.2422 18.69 21.9999L11.25 17.4224Z" fill="white"/>
<path d="M28.75 15.9539V15.8223C28.75 15.1592 28.4866 14.5233 28.0178 14.0545C27.5489 13.5857 26.913 13.3223 26.25 13.3223H13.75C13.087 13.3223 12.4511 13.5857 11.9822 14.0545C11.5134 14.5233 11.25 15.1592 11.25 15.8223V15.9539L19.345 20.9356C19.542 21.0568 19.7687 21.121 20 21.121C20.2313 21.121 20.458 21.0568 20.655 20.9356L28.75 15.9539Z" fill="white"/>
</svg>
