<svg width="28" height="35" viewBox="0 0 28 35" fill="none" xmlns="http://www.w3.org/2000/svg">
<path d="M11.9631 0.281605C11.6771 0.482332 11.5714 0.729895 11.3537 1.68001C11.1921 2.39593 11.1237 2.58997 11.0242 2.63681C10.9558 2.66357 10.5703 2.83753 10.1723 3.01819L9.44476 3.34604L8.68613 2.85761C7.80315 2.29557 7.57929 2.22866 7.18755 2.41601C6.82689 2.59666 4.5075 5.09906 4.3707 5.46706C4.22146 5.85514 4.29608 6.12277 4.79975 7.03943L5.25368 7.85572L4.94899 8.63856C4.7811 9.06678 4.61942 9.4883 4.58833 9.5619C4.54481 9.68234 4.38935 9.74256 3.70535 9.92321C2.80371 10.1574 2.5612 10.2778 2.39952 10.5789C2.30003 10.7596 2.2876 11.0005 2.2876 12.8672C2.2876 15.5703 2.2192 15.4231 3.70535 15.8112C4.38935 15.9919 4.54481 16.0521 4.58833 16.1725C4.61942 16.2461 4.7811 16.6677 4.94899 17.0959L5.25368 17.8787L4.79975 18.695C4.29608 19.6117 4.22146 19.8793 4.3707 20.2674C4.5075 20.6354 6.82689 23.1378 7.18755 23.3184C7.57929 23.5058 7.80315 23.4389 8.68613 22.8768L9.44476 22.3884L10.1723 22.7162C10.5703 22.8969 10.9558 23.0709 11.0242 23.0976C11.1237 23.1445 11.1859 23.3184 11.3289 23.9474C11.5403 24.9242 11.6895 25.2655 11.9507 25.4461C12.1497 25.5733 12.2554 25.58 14.1022 25.58C15.949 25.58 16.0547 25.5733 16.2537 25.4461C16.5149 25.2655 16.6641 24.9242 16.8755 23.9474C17.0185 23.3184 17.0807 23.1445 17.1802 23.0976C17.2486 23.0709 17.6341 22.8969 18.0321 22.7162L18.7596 22.3884L19.5183 22.8768C20.4012 23.4389 20.6251 23.5058 21.0168 23.3184C21.3775 23.1378 23.6969 20.6354 23.8337 20.2674C23.9829 19.8793 23.9083 19.6117 23.4046 18.695L22.9507 17.8787L23.2554 17.0959C23.4233 16.6677 23.585 16.2528 23.6098 16.1792C23.6534 16.0722 23.815 16.0053 24.3996 15.8514C25.3074 15.6239 25.6245 15.4633 25.7924 15.1823C25.9106 14.9682 25.9168 14.8544 25.9168 12.8672C25.9168 10.88 25.9106 10.7663 25.7924 10.5522C25.6245 10.2711 25.3074 10.1106 24.3996 9.88307C23.815 9.72918 23.6534 9.66227 23.6098 9.55521C23.585 9.48161 23.4233 9.06678 23.2554 8.63856L22.9507 7.85572L23.4046 7.03943C23.927 6.08932 23.9892 5.84845 23.815 5.42692C23.6472 5.03885 21.3215 2.54313 20.9795 2.39593C20.6189 2.23535 20.3702 2.31564 19.5183 2.85761L18.7596 3.34604L18.0321 3.01819C17.6341 2.83753 17.2486 2.66357 17.1802 2.63681C17.0807 2.58997 17.0185 2.41601 16.8755 1.78706C16.6641 0.823568 16.5086 0.448877 16.2537 0.281605C16.0734 0.161167 15.9179 0.154476 14.1022 0.154476C12.2865 0.154476 12.131 0.167858 11.9631 0.281605ZM15.0847 8.35754C16.5708 8.69209 17.8829 10.0704 18.2684 11.703C18.8591 14.1719 17.4663 16.7212 15.1779 17.3568C12.8959 17.9925 10.5143 16.4803 9.936 14.0314C9.43854 11.9573 10.3526 9.74925 12.1062 8.76568C13.0389 8.2371 13.9654 8.10998 15.0847 8.35754Z" fill="url(#paint0_linear_69_724)"/>
<path d="M9.03426 24.8841C8.65495 25.1183 8.22589 25.2789 7.80927 25.3458L7.57298 25.3859V26.5702V27.7545L6.02464 28.6779L4.47631 29.6012L4.2338 29.434C3.81718 29.1396 3.40678 29.0392 2.7663 29.0726C2.2875 29.0927 2.12582 29.1329 1.81491 29.2934C1.34233 29.541 0.869745 30.0562 0.633453 30.5647C0.465561 30.9394 0.453125 31.0197 0.453125 31.7356C0.453125 32.4516 0.465561 32.5318 0.633453 32.9065C0.869745 33.4217 1.34233 33.9302 1.82113 34.1845C2.16935 34.3652 2.24397 34.3785 2.90932 34.3785C3.57467 34.3785 3.64929 34.3652 3.99751 34.1845C4.47009 33.9302 4.94889 33.4217 5.17897 32.9132C5.31577 32.6054 5.36551 32.398 5.38417 31.9765L5.40904 31.4345L5.73239 31.2405C8.31916 29.715 9.20215 29.1529 9.31408 28.9522C9.43222 28.7515 9.43844 28.631 9.426 26.6974L9.40735 24.6499L9.03426 24.8841Z" fill="url(#paint1_linear_69_724)"/>
<path d="M18.7656 26.6907C18.7656 28.6177 18.7718 28.7582 18.89 28.9589C18.9833 29.1262 19.4185 29.4139 20.9047 30.3038L22.795 31.4345L22.8199 31.9765C22.8386 32.398 22.8883 32.6054 23.0251 32.9132C23.2552 33.4217 23.734 33.9302 24.2066 34.1845C24.5548 34.3652 24.6294 34.3785 25.2947 34.3785C25.9601 34.3785 26.0347 34.3652 26.3829 34.1845C26.8617 33.9302 27.3343 33.4217 27.5706 32.9065C27.7385 32.5318 27.7509 32.4516 27.7509 31.7356C27.7509 31.0197 27.7385 30.9394 27.5706 30.5647C27.3343 30.0562 26.8617 29.541 26.3892 29.2934C26.0782 29.1329 25.9166 29.0927 25.4378 29.0726C24.7973 29.0392 24.3869 29.1396 23.9703 29.434L23.734 29.6012L22.1856 28.6779L20.6311 27.7545V26.5702V25.3859L20.401 25.3458C19.9409 25.2722 19.661 25.1651 19.2196 24.9042L18.7656 24.6366V26.6907Z" fill="url(#paint2_linear_69_724)"/>
<path d="M13.169 28.3835V29.173L12.8021 29.4206C12.3606 29.7083 12.0497 30.0897 11.8134 30.5982C11.6579 30.9327 11.6455 31.0331 11.6455 31.7356C11.6455 32.4516 11.6579 32.5318 11.8258 32.9065C12.0621 33.4217 12.5347 33.9302 13.0135 34.1845C13.3617 34.3652 13.4364 34.3785 14.1017 34.3785C14.7671 34.3785 14.8417 34.3652 15.1899 34.1845C15.6687 33.9302 16.1413 33.4217 16.3776 32.9065C16.5455 32.5318 16.5579 32.4516 16.5579 31.7356C16.5579 31.0331 16.5455 30.9327 16.39 30.5982C16.1537 30.0897 15.8428 29.7083 15.4013 29.4206L15.0344 29.173V28.3835V27.5873H14.1017H13.169V28.3835Z" fill="url(#paint3_linear_69_724)"/>
<defs>
<linearGradient id="paint0_linear_69_724" x1="25.9168" y1="12.8672" x2="2.28711" y2="12.8672" gradientUnits="userSpaceOnUse">
<stop stop-color="#3596FF"/>
<stop offset="1" stop-color="#B3ACFF"/>
</linearGradient>
<linearGradient id="paint1_linear_69_724" x1="9.43051" y1="29.5142" x2="0.453125" y2="29.5142" gradientUnits="userSpaceOnUse">
<stop stop-color="#3596FF"/>
<stop offset="1" stop-color="#B3ACFF"/>
</linearGradient>
<linearGradient id="paint2_linear_69_724" x1="27.7509" y1="29.5076" x2="18.7656" y2="29.5076" gradientUnits="userSpaceOnUse">
<stop stop-color="#3596FF"/>
<stop offset="1" stop-color="#B3ACFF"/>
</linearGradient>
<linearGradient id="paint3_linear_69_724" x1="16.5579" y1="30.9829" x2="11.6455" y2="30.9829" gradientUnits="userSpaceOnUse">
<stop stop-color="#3596FF"/>
<stop offset="1" stop-color="#B3ACFF"/>
</linearGradient>
</defs>
</svg>
