<svg width="64" height="65" viewBox="0 0 64 65" fill="none" xmlns="http://www.w3.org/2000/svg">
<g clip-path="url(#clip0_69_1469)">
<path d="M34.2217 9.6318C34.2217 1.5698 34.2462 1.83996 33.3711 1.26071C32.7793 0.866207 31.1516 0.878292 29.5859 1.28512C25.3451 2.37005 21.5608 6.11818 18.75 11.9863C18.1215 13.2926 16.84 16.5323 16.8389 16.8183C16.8389 16.8553 20.747 16.8798 25.5303 16.8798H34.2217V9.6318ZM13.5098 15.6103C14.7549 11.6037 17.0235 7.17803 19.2549 4.40426C19.9203 3.57859 20.0065 3.44239 19.834 3.44235C19.7723 3.45467 19.0328 3.81267 18.1699 4.24411C13.7318 6.48782 10.3169 9.31108 7.18555 13.33C6.38475 14.3649 4.88188 16.6308 4.87988 16.8183C4.87988 16.8553 6.72888 16.8798 8.99707 16.8798H13.1152L13.5098 15.6103ZM40.249 26.4961C41.6909 26.4961 42.8493 26.4466 43.0596 26.3603C43.2445 26.2863 44.3548 25.2881 45.5137 24.1416L47.6211 22.0332L48.46 22.292C49.927 22.7481 51.6281 22.5756 53.0088 21.8359C53.8594 21.392 55.0434 20.1722 55.4502 19.334C56.5351 17.0902 56.128 14.4268 54.4268 12.6269C53.083 11.1969 50.7033 10.5071 48.7432 10.9756C46.7337 11.4441 44.8966 13.392 44.4404 15.5371C44.268 16.3507 44.367 17.8417 44.6504 18.6552L44.8604 19.247L41.4326 22.6748H37.7959V26.4961H40.249ZM11.0938 29.1093C11.1924 27.0506 11.4759 24.6342 11.8457 22.4521C12.0183 21.4782 12.1543 20.6397 12.1543 20.5781C12.1495 20.5043 10.4245 20.455 7.60547 20.455H3.05566L2.625 21.6513C1.68811 24.2032 1.0216 27.1739 0.861328 29.5039L0.775391 30.6875H11.0078L11.0938 29.1093ZM34.2207 20.455H15.877L15.7529 20.9726C15.3338 22.6616 14.8159 26.5821 14.668 29.1093L14.582 30.6875H34.2207V20.455ZM58.0635 38.331C60.7756 38.331 62.8586 36.8636 63.6846 34.3857C63.9064 33.7201 63.9442 33.3748 63.9072 32.29C63.8702 31.1067 63.8326 30.9218 63.4258 30.0713C63.1793 29.566 62.773 28.913 62.5264 28.6416C61.3059 27.2362 59.099 26.4464 57.2129 26.7422C55.3144 27.0504 53.4896 28.4068 52.8115 30.0341L52.54 30.6875H37.7959V34.3857H52.5283L52.8857 35.1504C53.8104 37.1351 55.7581 38.331 58.0635 38.331ZM7.60547 44.6181C10.1003 44.6181 12.1418 44.5696 12.1543 44.5205C12.1543 44.4588 12.0187 43.62 11.8584 42.6338C11.4762 40.3654 11.1924 37.9616 11.0938 35.9521L11.0078 34.3867H0.775391L0.861328 35.5693C1.02159 37.8993 1.6881 40.8706 2.625 43.4101L3.05566 44.6181H7.60547ZM34.2207 34.3867H14.582L14.668 35.9521C14.8159 38.4917 15.3338 42.4122 15.7529 44.0888L15.877 44.6181H34.2207V34.3867ZM50.124 54.2343C52.4047 54.2343 54.4144 53.0386 55.376 51.0908C57.1388 47.5157 55.1289 43.3488 51.2949 42.6338C50.3951 42.4613 49.0396 42.5603 48.2383 42.8437L47.6338 43.041L45.5254 40.9453C44.3542 39.7864 43.2445 38.7878 43.0596 38.7138C42.8493 38.6276 41.6908 38.5781 40.249 38.5781H37.7959V42.3994H41.4326L44.8604 45.8271L44.6504 46.4189C44.5271 46.7519 44.4042 47.4419 44.3672 47.9472C44.1206 51.3375 46.7708 54.222 50.124 54.2343ZM19.8828 61.582C19.9198 61.5573 19.6364 61.1501 19.2666 60.6816C17.0353 57.9078 14.7549 53.4576 13.5098 49.4511L13.1152 48.1933H8.99707C6.73338 48.1933 4.8872 48.2427 4.87988 48.292C4.87988 48.4646 6.70465 51.1525 7.44434 52.0771C9.82353 55.0603 12.4246 57.3902 15.5557 59.375C16.689 60.1018 19.7799 61.6781 19.8828 61.582ZM27.4287 62.9873C29.5245 64.0352 32.4342 64.4422 33.3711 63.8134C34.2463 63.2341 34.2217 63.5048 34.2217 55.4306V48.1933H25.5303C20.7618 48.1933 16.8631 48.2181 16.8389 48.2548C16.8389 48.5384 18.1213 51.7811 18.75 53.0879C20.2047 56.1328 21.7949 58.4379 23.6934 60.2871C25.0001 61.5445 26.0357 62.2969 27.4287 62.9873Z" fill="url(#paint0_linear_69_1469)"/>
</g>
<defs>
<linearGradient id="paint0_linear_69_1469" x1="63.9196" y1="32.542" x2="0.775391" y2="32.542" gradientUnits="userSpaceOnUse">
<stop stop-color="#3596FF"/>
<stop offset="1" stop-color="#B3ACFF"/>
</linearGradient>
<clipPath id="clip0_69_1469">
<rect width="63.12" height="63.12" fill="white" transform="translate(0.811523 0.976807)"/>
</clipPath>
</defs>
</svg>
