<svg width="21" height="21" viewBox="0 0 21 21" fill="none" xmlns="http://www.w3.org/2000/svg">
<path d="M1.99902 8.01108V15.1611C1.99902 15.8241 2.26242 16.46 2.73126 16.9288C3.2001 17.3977 3.83598 17.6611 4.49902 17.6611H16.999C17.6621 17.6611 18.2979 17.3977 18.7668 16.9288C19.2356 16.46 19.499 15.8241 19.499 15.1611V8.01108L12.059 12.5886C11.6651 12.831 11.2116 12.9593 10.749 12.9593C10.2865 12.9593 9.83299 12.831 9.43902 12.5886L1.99902 8.01108Z" fill="url(#paint0_linear_78_69)"/>
<path d="M19.499 6.54274V6.41107C19.499 5.74803 19.2356 5.11215 18.7668 4.6433C18.2979 4.17446 17.6621 3.91107 16.999 3.91107H4.49902C3.83598 3.91107 3.2001 4.17446 2.73126 4.6433C2.26242 5.11215 1.99902 5.74803 1.99902 6.41107V6.54274L10.094 11.5244C10.291 11.6456 10.5177 11.7098 10.749 11.7098C10.9803 11.7098 11.207 11.6456 11.404 11.5244L19.499 6.54274Z" fill="url(#paint1_linear_78_69)"/>
<defs>
<linearGradient id="paint0_linear_78_69" x1="19.499" y1="12.8361" x2="1.99902" y2="12.8361" gradientUnits="userSpaceOnUse">
<stop stop-color="#3596FF"/>
<stop offset="1" stop-color="#B3ACFF"/>
</linearGradient>
<linearGradient id="paint1_linear_78_69" x1="19.499" y1="7.81041" x2="1.99902" y2="7.81041" gradientUnits="userSpaceOnUse">
<stop stop-color="#3596FF"/>
<stop offset="1" stop-color="#B3ACFF"/>
</linearGradient>
</defs>
</svg>
