<svg width="62" height="63" viewBox="0 0 62 63" fill="none" xmlns="http://www.w3.org/2000/svg">
<path d="M1.85031 0.308285C1.13406 0.667946 0.33425 1.57994 0.14325 2.28641C0.0358125 2.65892 0 8.01527 0 23.5577V44.3152H30.56H61.12L61.0961 23.3393C61.0603 3.57091 61.0484 2.35064 60.8454 1.96529C60.4754 1.23312 59.8904 0.616566 59.2697 0.308285L58.6728 3.8147e-06H30.56H2.44719L1.85031 0.308285ZM30.7271 6.96198C30.8226 7.12897 31.4434 8.68321 32.1238 10.4301C32.8042 12.1899 33.3892 13.6157 33.425 13.6157C33.4608 13.6157 34.0457 12.1514 34.7262 10.3659C35.4066 8.5933 36.0632 7.01336 36.1826 6.88491C36.3019 6.74362 36.4691 6.67939 36.5765 6.71793C36.7556 6.795 36.7675 7.24458 36.7436 10.9439L36.7078 15.0929H36.4094H36.1109L36.0751 12.2927C36.0632 10.7641 36.0035 9.50529 35.9557 9.50529C35.908 9.50529 35.3947 10.7513 34.8097 12.2798C34.2248 13.8084 33.6637 15.08 33.5682 15.1314C33.4728 15.1699 33.3176 15.1442 33.2221 15.08C33.1266 15.0158 32.6133 13.8597 32.0999 12.5239C31.5866 11.1751 31.0853 9.94202 31.0136 9.76219C30.8823 9.49245 30.8465 9.89064 30.7987 12.267L30.7391 15.0929L30.4526 15.1314C30.2974 15.1571 30.1183 15.1057 30.0706 15.0029C29.9034 14.7204 29.9392 7.01336 30.1064 6.83353C30.3212 6.60233 30.5361 6.64086 30.7271 6.96198ZM41.5067 6.83353C41.5783 6.92345 41.9842 8.29786 42.4259 9.89064C42.8676 11.4706 43.2734 12.8578 43.3331 12.9734C43.4644 13.2175 43.3689 13.5001 44.3478 9.89064C44.7895 8.29786 45.1954 6.93629 45.267 6.84638C45.4461 6.61517 45.6968 6.64086 45.8281 6.89776C45.8997 7.06474 45.6968 7.96389 45.1118 10.0833C43.5719 15.6067 43.7151 15.1571 43.3928 15.1571C43.1421 15.1571 43.0705 15.0543 42.9153 14.4763C42.8198 14.1166 42.3065 12.3055 41.7932 10.4687C41.1366 8.10519 40.8859 7.06474 40.9695 6.89776C41.0889 6.64086 41.3396 6.61517 41.5067 6.83353ZM53.4919 6.80785C54.5305 7.11612 55.1632 7.88682 55.2348 8.88873C55.2826 9.4796 55.2348 9.64658 54.9364 10.1604C54.3992 11.0595 53.4084 11.432 51.5461 11.432H50.7463L50.7105 13.256L50.6747 15.0929H50.3763H50.0778L50.042 11.0467C50.0301 8.8245 50.042 6.93629 50.0778 6.84638C50.1494 6.64086 52.8473 6.61517 53.4919 6.80785ZM18.6702 11.766C18.8254 11.8302 18.8612 12.1 18.8612 13.423V15.0029L19.2552 15.1699C19.4581 15.2598 19.9714 15.5938 20.3892 15.8892C20.7951 16.1975 21.1891 16.4416 21.2488 16.4416C21.3204 16.4416 21.8456 16.1461 22.4186 15.7993C22.9916 15.4397 23.5527 15.1571 23.6601 15.1571C23.9347 15.1571 26.3461 19.7427 26.1909 19.9868C26.1312 20.0896 25.5821 20.4749 24.9732 20.8474L23.8631 21.5282L23.8272 23.0696L23.7795 24.5981L24.9016 25.2789C25.5701 25.6771 26.0238 26.0368 26.0238 26.1652C26.0238 26.3964 23.8034 30.6224 23.5646 30.8408C23.4452 30.9436 23.1349 30.8151 22.156 30.2114L20.9145 29.4407L20.5683 29.6976C20.3892 29.8389 19.864 30.1472 19.3984 30.3912L18.5628 30.828L18.5031 32.3437L18.4434 33.8465L15.9485 33.8851C14.2176 33.9108 13.4058 33.8722 13.2984 33.7695C13.179 33.6667 13.1313 33.2428 13.1313 32.1767V30.7252L12.3673 30.2628C11.9375 30.0059 11.4242 29.6462 11.2212 29.4664L10.8631 29.1324L9.70519 29.8517C9.06056 30.2628 8.47563 30.5454 8.36819 30.5068C8.15331 30.4298 5.93294 26.2937 5.87325 25.8698C5.83744 25.6386 6.05231 25.4716 7.03119 24.855L8.23687 24.1229L8.26075 22.8512C8.27269 22.1576 8.28463 21.4768 8.28463 21.3612C8.29656 21.2199 7.91456 20.8988 7.19831 20.4364C6.5895 20.0382 6.06425 19.64 6.02844 19.5501C5.94487 19.3189 8.36819 14.8488 8.60694 14.7974C8.70244 14.7846 9.31125 15.0929 9.95588 15.4911C11.1138 16.2232 11.1257 16.2232 11.4481 16.0049C11.6152 15.8892 12.1524 15.581 12.6299 15.3112L13.4894 14.8488V13.4744C13.4894 12.3826 13.5252 12.0486 13.6804 11.8945C13.8356 11.7275 14.2295 11.6889 16.1753 11.6889C17.4407 11.6889 18.5628 11.7275 18.6702 11.766ZM34.0338 19.9868C34.1413 20.1281 34.1532 20.2437 34.0577 20.3978C33.9502 20.5905 33.6757 20.6162 32.0522 20.6162C30.4287 20.6162 30.1541 20.5905 30.0467 20.3978C29.9512 20.2437 29.9631 20.1281 30.0706 19.9868C30.2019 19.8198 30.5361 19.7813 32.0522 19.7813C33.5682 19.7813 33.9025 19.8198 34.0338 19.9868ZM55.1871 20.051C55.2587 20.1666 55.2706 20.3593 55.2348 20.4749C55.1632 20.6676 54.4111 20.6804 46.5682 20.6804C38.2 20.6804 37.9613 20.6676 37.8419 20.4364C37.7583 20.2437 37.7702 20.1409 37.9135 19.9868C38.0806 19.807 38.9879 19.7813 46.5801 19.807C54.244 19.8455 55.0796 19.8712 55.1871 20.051ZM34.0219 26.1395C34.1054 26.2423 34.1413 26.4221 34.0935 26.5249C34.0457 26.6919 33.7115 26.7176 32.0522 26.7176C30.3929 26.7176 30.0586 26.6919 30.0109 26.5249C29.9631 26.4221 29.9989 26.2423 30.0825 26.1395C30.2019 25.9854 30.5839 25.9469 32.0522 25.9469C33.5205 25.9469 33.9025 25.9854 34.0219 26.1395ZM55.2109 26.3322V26.6533L46.6279 26.6919C40.4681 26.7047 37.9971 26.679 37.8896 26.5763C37.7702 26.4735 37.7583 26.3707 37.8538 26.1909C37.9613 25.9469 38.2239 25.9469 46.5921 25.9726L55.2109 26.0111V26.3322ZM33.9741 32.1638C34.1532 32.318 34.1771 32.395 34.0696 32.5877C33.9502 32.7932 33.7354 32.8189 32.0522 32.8189C30.369 32.8189 30.1541 32.7932 30.0347 32.5877C29.9273 32.395 29.9512 32.318 30.1302 32.1638C30.3093 32.0225 30.7749 31.984 32.0522 31.984C33.3295 31.984 33.7951 32.0225 33.9741 32.1638ZM55.1871 32.2537C55.2587 32.3694 55.2706 32.562 55.2348 32.6776C55.1632 32.8703 54.4111 32.8832 46.5682 32.8832C38.2 32.8832 37.9613 32.8703 37.8419 32.6391C37.7583 32.4464 37.7702 32.3437 37.9135 32.1895C38.0806 32.0097 38.9879 31.984 46.5801 32.0097C54.244 32.0482 55.0796 32.0739 55.1871 32.2537ZM34.0696 38.445C34.1771 38.6377 34.1532 38.7148 33.9741 38.8689C33.7951 39.0102 33.3414 39.0487 32.0761 39.0487C30.4645 39.0487 29.9631 38.946 29.9631 38.6249C29.9631 38.201 30.2377 38.1368 32.0999 38.1753C33.7234 38.2138 33.9502 38.2395 34.0696 38.445ZM55.0796 38.2267C55.3423 38.3423 55.3184 38.7533 55.0319 38.9203C54.8767 39.0102 52.1191 39.0487 46.3772 39.0231C37.3763 38.9845 37.5434 38.9974 37.8538 38.3808C37.9613 38.1624 38.4029 38.1496 46.4369 38.1496C51.0806 38.1496 54.9722 38.1881 55.0796 38.2267Z" fill="url(#paint0_linear_69_1275)"/>
<path d="M50.7344 9.05579V10.533H51.9043C53.289 10.533 53.862 10.3788 54.1962 9.92924C54.4827 9.53105 54.5186 8.65759 54.244 8.24655C53.8978 7.70706 53.4681 7.57861 52.0475 7.57861H50.7344V9.05579Z" fill="url(#paint1_linear_69_1275)"/>
<path d="M14.3252 13.8593C14.3252 15.1952 14.2655 15.542 14.0387 15.542C13.788 15.542 12.3794 16.3127 11.8064 16.7751L11.2214 17.2247L10.0277 16.4926C9.3592 16.0944 8.81007 15.7861 8.7862 15.8118C8.76232 15.8375 8.33257 16.6338 7.81926 17.5844C7.07913 18.9459 6.92395 19.3184 7.05526 19.4084C9.15626 20.7442 9.13238 20.7314 9.09657 21.1296C9.0727 21.348 9.04882 22.1957 9.03688 23.0435L9.01301 24.5592L7.93863 25.2271C7.31788 25.6125 6.86426 25.985 6.86426 26.1006C6.86426 26.3447 8.4997 29.5431 8.63101 29.5431C8.6907 29.5431 9.18013 29.2476 9.7412 28.9008C10.3023 28.5411 10.8036 28.2586 10.8753 28.2586C10.9349 28.2586 11.2573 28.4898 11.5915 28.7724C11.9258 29.0549 12.5465 29.466 12.9882 29.6843C13.4299 29.9156 13.8238 30.1596 13.8716 30.2367C13.9193 30.3138 13.9671 30.9945 13.9671 31.7524V33.1396H15.8771H17.7871V31.7395C17.7871 30.1853 17.7751 30.2238 18.6704 29.8642C18.9808 29.7486 19.5896 29.3889 20.0194 29.0806C20.4491 28.7724 20.8431 28.5155 20.8789 28.5155C20.9266 28.5155 21.4638 28.8366 22.0846 29.2219C22.6934 29.6201 23.2306 29.8899 23.2783 29.8385C23.5648 29.4917 25.0689 26.5245 25.0212 26.396C24.9973 26.3061 24.5198 25.9721 23.9707 25.6382L22.956 25.0216L23.0038 23.082C23.0276 22.0159 23.0634 21.1296 23.0754 21.1167C23.0873 21.1039 23.5887 20.7956 24.1736 20.4231C24.7705 20.0506 25.2719 19.7295 25.2958 19.7038C25.3674 19.6267 23.5051 16.1843 23.3977 16.1843C23.338 16.1843 22.8366 16.4669 22.2756 16.8265C21.7145 17.1733 21.2131 17.4688 21.1534 17.4688C21.0818 17.4688 20.7714 17.2376 20.4611 16.9421C20.1388 16.6595 19.4822 16.2228 19.0166 15.9788L18.1452 15.5292V14.052V12.5877H16.2352H14.3252V13.8593ZM17.8945 19.0102C18.7182 19.4854 19.3031 20.1405 19.7209 21.0525C19.9478 21.5406 19.9955 21.8489 19.9955 22.8637C19.9955 23.9426 19.9597 24.161 19.6732 24.7262C19.2434 25.6125 18.4675 26.4346 17.6677 26.8328C16.7246 27.308 15.3876 27.308 14.4326 26.8328C13.4896 26.3575 12.8449 25.6767 12.3913 24.6877C12.0451 23.9298 11.9974 23.7114 12.0093 22.7994C12.0213 21.5663 12.2839 20.847 13.024 19.9735C13.9671 18.8817 14.8624 18.4707 16.2352 18.5349C16.9873 18.5734 17.2618 18.6505 17.8945 19.0102Z" fill="url(#paint2_linear_69_1275)"/>
<path d="M15.16 19.434C13.632 19.8964 12.7725 21.1167 12.7725 22.825C12.7844 24.7646 13.9543 26.1519 15.721 26.306C17.0938 26.4216 18.2756 25.7794 18.8845 24.572C20.2811 21.8103 17.9414 18.5862 15.16 19.434Z" fill="url(#paint3_linear_69_1275)"/>
<path d="M0 47.7313C0 49.2984 0.04775 50.4545 0.14325 50.7628C0.322313 51.405 1.07438 52.3298 1.719 52.7023L2.20844 52.9849L30.3212 53.0235C62.0272 53.0492 59.1264 53.1519 60.165 52.0344C61.0126 51.1224 61.12 50.6472 61.12 47.6928V45.2137H30.56H0V47.7313ZM34.4397 48.425V48.7461L30.5839 48.7846C27.2414 48.8103 26.7281 48.7846 26.6684 48.6176C26.6206 48.5149 26.6206 48.3351 26.6684 48.2323C26.7281 48.0653 27.2414 48.0396 30.5839 48.0653L34.4397 48.1038V48.425Z" fill="url(#paint4_linear_69_1275)"/>
<path d="M22.5626 57.2883V60.628H20.5571C18.3487 60.628 18.1935 60.6794 18.0741 61.3601C18.0144 61.6941 18.0622 61.8354 18.3009 62.0923L18.6113 62.4263H30.5607H42.5102L42.7967 62.1051C42.9638 61.9382 43.0951 61.707 43.0951 61.5913C43.0951 61.3344 42.8683 60.8592 42.6892 60.7307C42.6176 60.6794 41.6626 60.628 40.5644 60.628H38.5588V57.2883V53.9486H30.5607H22.5626V57.2883Z" fill="url(#paint5_linear_69_1275)"/>
<defs>
<linearGradient id="paint0_linear_69_1275" x1="61.12" y1="22.1576" x2="0" y2="22.1576" gradientUnits="userSpaceOnUse">
<stop stop-color="#3596FF"/>
<stop offset="1" stop-color="#B3ACFF"/>
</linearGradient>
<linearGradient id="paint1_linear_69_1275" x1="54.4317" y1="9.05579" x2="50.7344" y2="9.05579" gradientUnits="userSpaceOnUse">
<stop stop-color="#3596FF"/>
<stop offset="1" stop-color="#B3ACFF"/>
</linearGradient>
<linearGradient id="paint2_linear_69_1275" x1="25.2978" y1="22.8637" x2="6.86426" y2="22.8637" gradientUnits="userSpaceOnUse">
<stop stop-color="#3596FF"/>
<stop offset="1" stop-color="#B3ACFF"/>
</linearGradient>
<linearGradient id="paint3_linear_69_1275" x1="19.3007" y1="22.8076" x2="12.7725" y2="22.8076" gradientUnits="userSpaceOnUse">
<stop stop-color="#3596FF"/>
<stop offset="1" stop-color="#B3ACFF"/>
</linearGradient>
<linearGradient id="paint4_linear_69_1275" x1="61.12" y1="49.1258" x2="0" y2="49.1258" gradientUnits="userSpaceOnUse">
<stop stop-color="#3596FF"/>
<stop offset="1" stop-color="#B3ACFF"/>
</linearGradient>
<linearGradient id="paint5_linear_69_1275" x1="43.0951" y1="58.1874" x2="18.0508" y2="58.1874" gradientUnits="userSpaceOnUse">
<stop stop-color="#3596FF"/>
<stop offset="1" stop-color="#B3ACFF"/>
</linearGradient>
</defs>
</svg>
