<svg width="353" height="266" viewBox="0 0 353 266" fill="none" xmlns="http://www.w3.org/2000/svg">
<path d="M318.341 90.0864C310.281 88.2333 302.095 87.7354 293.989 88.602L293.205 88.6904C271.077 91.2956 250.919 104.07 239.095 122.926L238.538 123.828L238.538 123.829C235.672 128.547 233.529 133.243 231.489 137.903L230.62 139.898C228.821 144.033 227.056 148.091 225.02 151.593L224.609 152.285L224.608 152.288C222.938 155.038 220.966 157.265 219.081 158.812C218.139 159.584 217.184 160.215 216.267 160.652C215.384 161.072 214.37 161.394 213.362 161.336L213.345 161.334L213.328 161.333C213.072 161.314 212.769 161.277 212.435 161.2C210.535 160.763 208.412 159.485 206.402 158.07C204.85 156.978 203.213 155.692 201.6 154.393L199.999 153.097C193.413 147.759 185.632 141.486 175.665 139.195C172.339 138.43 168.935 138.161 165.546 138.397L164.867 138.451L164.866 138.45C152.203 139.576 143.526 147.317 136.77 153.897L135.443 155.196C133.782 156.825 132.115 158.466 130.53 159.856C128.964 161.229 127.356 162.469 125.796 163.23L125.796 163.231C122.795 164.701 119.471 164.298 117.442 163.832C112.554 162.708 107.433 159.486 103.961 155.42C96.3648 146.532 92.655 133.63 88.8771 120.625L88.8759 120.626L88.7515 120.195L88.75 120.193C84.7528 106.44 79.4276 88.2322 66.6078 74.1731L65.9915 73.5063C57.5086 64.462 46.2783 58.1119 33.492 55.1723C17.855 51.5772 1.93307 53.5225 -11.438 60.5875L-12.0723 60.9276C-20.0782 65.2826 -26.4109 70.826 -32.505 76.5052L-35.106 78.9444L-35.1072 78.9452C-36.3054 80.0711 -37.4636 81.1629 -38.6267 82.2374L-39.7932 83.3059L-39.7937 83.3078C-42.4017 85.6739 -45.4744 88.308 -48.753 90.4867C-51.809 92.5175 -55.1686 94.2369 -58.6031 94.9148L-59.2904 95.0363C-60.6963 95.2553 -62.1976 95.1845 -63.6373 94.8536C-64.6255 94.6264 -65.5028 94.2925 -66.2252 93.9149C-66.9124 93.5556 -67.5827 93.0924 -68.0474 92.54L-68.0463 92.5393L-72.5178 87.2285L-80.3894 121.466L-77.7403 122.609C-75.4624 123.592 -73.0714 124.375 -70.6288 124.937C-65.6835 126.074 -60.6219 126.31 -55.5608 125.641L-54.5492 125.495L-54.5483 125.495C-39.9695 123.228 -28.5269 114.607 -19.8986 106.871L-19.0728 106.125C-18.2036 105.335 -17.3452 104.543 -16.4985 103.754L-13.9925 101.405L-13.9913 101.405L-11.9402 99.4784C-7.15379 95.0039 -2.36884 90.7402 2.6533 88.0124L2.65425 88.0127C9.55564 84.2625 18.2675 83.2673 26.5736 85.177C32.9875 86.6516 38.8391 89.8133 43.1005 94.1672L43.5077 94.5925L43.5087 94.5927C50.7492 102.313 54.7046 113.716 58.4117 126.267L59.1509 128.791L59.1542 128.803L59.2751 129.228C63.689 144.404 68.569 161.097 79.9795 174.798L80.5285 175.448L80.5292 175.449C88.291 184.549 99.2895 191.268 110.636 193.877C120.442 196.131 130.049 195.223 138.521 191.308L139.337 190.92C145.775 187.767 150.882 183.163 155.218 178.96L157.031 177.189C158.587 175.66 160.495 173.786 162.257 172.273C163.137 171.517 164.026 170.813 164.849 170.275C165.573 169.803 166.534 169.263 167.524 169.155L167.523 169.154C167.528 169.154 167.533 169.154 167.538 169.153C167.555 169.151 167.573 169.149 167.59 169.147L167.591 169.148C167.965 169.112 168.371 169.154 168.796 169.252C170.529 169.65 172.537 170.896 174.422 172.238C175.893 173.285 177.467 174.523 179.022 175.775L180.566 177.025L180.567 177.025C187.622 182.747 195.235 188.882 205.43 191.226C207.207 191.634 209.018 191.913 210.83 192.053L211.607 192.105L211.608 192.105C226.276 192.94 240.815 184.502 250.502 169.022L250.959 168.279L250.959 168.278L251.563 167.268C254.131 162.889 256.121 158.527 258.017 154.195L258.887 152.199C260.685 148.064 262.451 144.005 264.486 140.508L264.896 139.816L264.897 139.815L265.218 139.295C271.932 128.6 283.689 121.044 296.203 119.377L296.808 119.301L296.809 119.301C301.57 118.741 306.455 119.024 311.315 120.141C319.173 121.948 326.517 125.889 332.086 131.307L332.62 131.836C336.552 135.809 339.993 140.847 343.419 146.077L344.888 148.327C348.041 153.164 351.236 158.06 355.044 162.847L355.813 163.802C365.144 175.241 376.305 182.621 388.035 185.318C394.312 186.761 400.52 186.792 406.495 185.423L406.496 185.423C410.298 184.55 413.668 183.18 416.577 181.917L417.796 181.383C418.316 181.155 418.795 180.946 419.251 180.75L420.561 180.196L420.569 180.193L422.238 179.513L429.353 148.568L425.266 148.321L425.264 148.322C424.212 148.257 423.189 148.255 422.22 148.313L421.808 148.341C416.069 148.792 411.284 150.622 407.154 152.399L405.423 153.152C403.507 153.994 401.206 155.011 399.625 155.371L399.625 155.372C398.164 155.71 396.598 155.643 395.022 155.281C391.984 154.582 389.017 152.871 386.432 150.884C383.829 148.883 381.49 146.506 379.705 144.318C376.568 140.477 373.689 136.055 370.719 131.496C365.975 124.219 361.18 116.876 354.543 110.166L354.544 110.166C344.696 100.214 332.181 93.2683 318.341 90.0864Z" fill="url(#paint0_linear_1_8)" stroke="white" stroke-width="4.09815"/>
<path d="M-70.6447 94.4634C-68.3485 97.1864 -63.3119 98.8677 -58.7033 98.1535C-50.753 96.9164 -43.1499 90.7744 -37.4135 85.5692C-35.85 84.1481 -34.3077 82.7018 -32.6852 81.172C-26.0352 74.9196 -19.1596 68.454 -10.3674 63.6727C13.3123 50.802 45.0761 55.9165 63.5129 75.5752C76.2627 89.1692 81.5865 107.485 85.4715 120.855L85.5969 121.285C89.59 135.013 93.3565 147.983 101.378 157.371C107.713 164.787 119.175 170.059 127.376 166.046C130.791 164.377 134.257 160.975 137.928 157.367C144.582 150.83 152.873 142.699 165.23 141.598C179.21 140.354 189.555 148.74 197.866 155.483C203.422 159.988 208.661 164.244 213.224 164.498C218.503 164.801 224.265 159.337 227.627 153.79C229.954 149.962 231.847 145.599 233.853 140.984C236.088 135.843 238.402 130.538 241.558 125.324C252.753 106.871 272.233 94.3532 293.664 91.8252C315.095 89.2973 336.951 96.9522 352.131 112.301C358.549 118.792 363.287 126.059 367.868 133.092C370.938 137.801 373.831 142.244 377.071 146.211C382.647 153.052 392.119 160.36 400.447 158.456C402.298 158.032 404.519 157.061 406.871 156.025C411.209 154.121 416.122 151.968 422.142 151.497C423.132 151.418 424.124 151.422 425.123 151.482L419.326 176.694C418.404 177.066 417.452 177.486 416.47 177.913C413.363 179.278 409.834 180.825 405.782 181.748C389.656 185.442 372.003 177.802 358.559 161.316C354.514 156.356 351.126 151.167 347.858 146.141C343.742 139.833 339.86 133.87 335.146 129.103C325.253 119.102 310.435 113.914 296.464 115.561C282.494 117.209 269.288 125.698 261.991 137.721C259.67 141.55 257.771 145.905 255.767 150.514C253.532 155.654 251.215 160.973 248.053 166.185C239.151 180.843 225.625 189.13 211.865 188.352C199.603 187.653 190.677 180.422 182.807 174.039C176.833 169.193 171.672 165.01 167.343 165.394C163.5 165.734 159.407 169.761 154.661 174.412C150.02 178.965 144.761 184.131 137.87 187.5C129.309 191.689 120.124 192.18 111.468 190.19C100.385 187.642 90.1572 181.023 83.2017 172.879C71.8376 159.583 66.9489 142.775 62.6393 127.941L62.5139 127.511C58.3456 113.185 54.2349 100.619 46.0701 91.9118C35.0111 80.1268 15.234 76.9391 1.03018 84.6556C-5.05078 87.9603 -10.5295 93.1092 -16.3238 98.5662C-17.9543 100.101 -19.6448 101.69 -21.3616 103.246C-29.5713 110.696 -40.8136 119.542 -55.0432 121.754C-62.5417 122.919 -69.9328 121.872 -76.3315 119.109L-70.6641 94.459L-70.6447 94.4634Z" fill="#F1F0FF"/>
<path d="M-76.703 105.119C-71.3159 109.266 -63.7346 111.023 -56.8704 109.957C-46.3188 108.313 -37.2919 101.594 -29.3873 94.4068C-21.4777 87.2276 -14.0537 79.2639 -4.66505 74.1644C14.3092 63.8476 40.0169 67.9911 54.7983 83.7444C65.108 94.7387 69.7931 109.713 74.0027 124.185C78.2122 138.656 82.5076 153.67 92.296 165.129C102.084 176.588 119.091 183.4 132.63 176.774C145.089 170.675 152.474 154.724 166.293 153.497C183.846 151.933 194.966 175.427 212.555 176.427C223.107 177.025 232.367 169.028 237.85 159.986C243.339 150.952 246.305 140.563 251.788 131.522C261.002 116.337 277.444 105.772 295.081 103.696C312.717 101.621 331.165 108.078 343.649 120.7C353.26 130.42 359.185 143.165 367.827 153.755C376.469 164.346 389.8 173.14 403.127 170.094C409.992 168.519 416.064 163.955 423.082 163.401C427.428 163.061 432.195 165.707 434.309 169.196" stroke="url(#paint1_linear_1_8)" stroke-width="1.32507" stroke-miterlimit="10" stroke-dasharray="7.27 7.27"/>
<g clip-path="url(#clip0_1_8)">
<path d="M69.0698 72.449C69.0698 78.992 57.2224 96.2568 57.2224 96.2568C57.2224 96.2568 45.375 78.992 45.375 72.449C45.375 65.906 50.6794 60.6016 57.2224 60.6016C63.7654 60.6016 69.0698 65.906 69.0698 72.449Z" fill="#C2BDFF"/>
<g filter="url(#filter0_d_1_8)">
<path d="M61.1598 75.8645C63.3345 73.6897 63.3345 70.1638 61.1598 67.9891C58.985 65.8143 55.4591 65.8143 53.2844 67.9891C51.1096 70.1638 51.1096 73.6897 53.2844 75.8645C55.4591 78.0392 58.985 78.0392 61.1598 75.8645Z" fill="white"/>
</g>
<path d="M47.4054 73.4892C47.4054 67.8052 52.0132 63.1975 57.6972 63.1975C61.0197 63.1975 63.9736 64.7723 65.8556 67.2156C64.0784 64.1306 60.7476 62.0532 56.9314 62.0532C51.2474 62.0532 46.6396 66.661 46.6396 72.345C46.6396 74.7064 47.4356 76.882 48.7735 78.6186C47.9029 77.1085 47.4054 75.357 47.4054 73.4892Z" fill="#B3ACFF"/>
<path d="M54.4287 91.7251C56.0431 94.43 57.2224 96.2566 57.2224 96.2566C57.2224 96.2566 69.0698 78.9918 69.0698 72.4488C69.0698 72.1054 69.0517 71.7659 69.0232 71.4302C68.5559 73.248 67.8949 75.0176 67.083 76.7071C64.8406 81.3752 61.5241 84.3659 57.992 88.153C56.8538 89.3735 55.6684 90.5809 54.4287 91.7251Z" fill="#B3ACFF"/>
</g>
<g clip-path="url(#clip1_1_8)">
<path d="M119.856 148.567C119.856 155.11 108.009 172.374 108.009 172.374C108.009 172.374 96.1611 155.11 96.1611 148.567C96.1611 142.024 101.466 136.719 108.009 136.719C114.552 136.719 119.856 142.024 119.856 148.567Z" fill="#4DA2FF"/>
<g filter="url(#filter1_d_1_8)">
<path d="M111.946 151.983C114.121 149.808 114.121 146.282 111.946 144.107C109.771 141.932 106.245 141.932 104.071 144.107C101.896 146.282 101.896 149.808 104.071 151.983C106.245 154.157 109.771 154.157 111.946 151.983Z" fill="white"/>
</g>
<path d="M98.1915 149.607C98.1915 143.923 102.799 139.316 108.483 139.316C111.806 139.316 114.76 140.891 116.642 143.334C114.864 140.249 111.534 138.171 107.718 138.171C102.034 138.171 97.4258 142.779 97.4258 148.463C97.4258 150.825 98.2217 153 99.5596 154.737C98.6891 153.227 98.1915 151.475 98.1915 149.607Z" fill="#3596FF"/>
<path d="M105.215 167.843C106.829 170.548 108.009 172.374 108.009 172.374C108.009 172.374 119.856 155.11 119.856 148.566C119.856 148.223 119.838 147.884 119.809 147.548C119.342 149.366 118.681 151.135 117.869 152.825C115.627 157.493 112.31 160.484 108.778 164.271C107.64 165.491 106.455 166.699 105.215 167.843Z" fill="#3596FF"/>
</g>
<g clip-path="url(#clip2_1_8)">
<path d="M235.445 145.117C235.445 151.66 223.597 168.925 223.597 168.925C223.597 168.925 211.75 151.66 211.75 145.117C211.75 138.574 217.054 133.27 223.597 133.27C230.14 133.27 235.445 138.574 235.445 145.117Z" fill="#85ADFF"/>
<g filter="url(#filter2_d_1_8)">
<path d="M227.535 148.532C229.71 146.358 229.71 142.832 227.535 140.657C225.36 138.482 221.834 138.482 219.659 140.657C217.485 142.832 217.485 146.358 219.659 148.532C221.834 150.707 225.36 150.707 227.535 148.532Z" fill="white"/>
</g>
<path d="M213.78 146.158C213.78 140.474 218.388 135.866 224.072 135.866C227.395 135.866 230.349 137.441 232.231 139.884C230.453 136.799 227.123 134.722 223.306 134.722C217.622 134.722 213.015 139.329 213.015 145.013C213.015 147.375 213.811 149.55 215.148 151.287C214.278 149.777 213.78 148.025 213.78 146.158Z" fill="#72A1FF"/>
<path d="M220.804 164.394C222.418 167.098 223.597 168.925 223.597 168.925C223.597 168.925 235.445 151.66 235.445 145.117C235.445 144.774 235.427 144.434 235.398 144.099C234.931 145.917 234.27 147.686 233.458 149.376C231.216 154.044 227.899 157.034 224.367 160.821C223.229 162.042 222.043 163.249 220.804 164.394Z" fill="#72A1FF"/>
</g>
<g clip-path="url(#clip3_1_8)">
<path d="M330.025 82.1834C330.025 88.7264 318.177 105.991 318.177 105.991C318.177 105.991 306.33 88.7264 306.33 82.1834C306.33 75.6403 311.634 70.3359 318.177 70.3359C324.721 70.3359 330.025 75.6403 330.025 82.1834Z" fill="#ABA3FF"/>
<g filter="url(#filter3_d_1_8)">
<path d="M322.115 85.5988C324.29 83.4241 324.29 79.8982 322.115 77.7234C319.94 75.5487 316.414 75.5487 314.239 77.7234C312.065 79.8982 312.065 83.4241 314.239 85.5988C316.414 87.7736 319.94 87.7736 322.115 85.5988Z" fill="white"/>
</g>
<path d="M308.36 83.2236C308.36 77.5396 312.968 72.9319 318.652 72.9319C321.975 72.9319 324.929 74.5067 326.811 76.9499C325.033 73.8649 321.703 71.7876 317.886 71.7876C312.202 71.7876 307.595 76.3954 307.595 82.0793C307.595 84.4408 308.391 86.6163 309.729 88.353C308.858 86.8429 308.36 85.0914 308.36 83.2236Z" fill="#9D94FF"/>
<path d="M315.384 101.46C316.998 104.164 318.178 105.991 318.178 105.991C318.178 105.991 330.025 88.7262 330.025 82.1832C330.025 81.8398 330.007 81.5003 329.978 81.1646C329.511 82.9824 328.85 84.752 328.038 86.4415C325.796 91.1096 322.479 94.1003 318.947 97.8874C317.809 99.1079 316.623 100.315 315.384 101.46Z" fill="#9D94FF"/>
</g>
<defs>
<filter id="filter0_d_1_8" x="49.8606" y="66.3579" width="14.7232" height="14.7232" filterUnits="userSpaceOnUse" color-interpolation-filters="sRGB">
<feFlood flood-opacity="0" result="BackgroundImageFix"/>
<feColorMatrix in="SourceAlpha" type="matrix" values="0 0 0 0 0 0 0 0 0 0 0 0 0 0 0 0 0 0 127 0" result="hardAlpha"/>
<feOffset dy="1.79273"/>
<feGaussianBlur stdDeviation="0.896365"/>
<feComposite in2="hardAlpha" operator="out"/>
<feColorMatrix type="matrix" values="0 0 0 0 0 0 0 0 0 0 0 0 0 0 0 0 0 0 0.25 0"/>
<feBlend mode="normal" in2="BackgroundImageFix" result="effect1_dropShadow_1_8"/>
<feBlend mode="normal" in="SourceGraphic" in2="effect1_dropShadow_1_8" result="shape"/>
</filter>
<filter id="filter1_d_1_8" x="100.647" y="142.476" width="14.7232" height="14.7232" filterUnits="userSpaceOnUse" color-interpolation-filters="sRGB">
<feFlood flood-opacity="0" result="BackgroundImageFix"/>
<feColorMatrix in="SourceAlpha" type="matrix" values="0 0 0 0 0 0 0 0 0 0 0 0 0 0 0 0 0 0 127 0" result="hardAlpha"/>
<feOffset dy="1.79273"/>
<feGaussianBlur stdDeviation="0.896365"/>
<feComposite in2="hardAlpha" operator="out"/>
<feColorMatrix type="matrix" values="0 0 0 0 0 0 0 0 0 0 0 0 0 0 0 0 0 0 0.25 0"/>
<feBlend mode="normal" in2="BackgroundImageFix" result="effect1_dropShadow_1_8"/>
<feBlend mode="normal" in="SourceGraphic" in2="effect1_dropShadow_1_8" result="shape"/>
</filter>
<filter id="filter2_d_1_8" x="216.236" y="139.026" width="14.7232" height="14.7232" filterUnits="userSpaceOnUse" color-interpolation-filters="sRGB">
<feFlood flood-opacity="0" result="BackgroundImageFix"/>
<feColorMatrix in="SourceAlpha" type="matrix" values="0 0 0 0 0 0 0 0 0 0 0 0 0 0 0 0 0 0 127 0" result="hardAlpha"/>
<feOffset dy="1.79273"/>
<feGaussianBlur stdDeviation="0.896365"/>
<feComposite in2="hardAlpha" operator="out"/>
<feColorMatrix type="matrix" values="0 0 0 0 0 0 0 0 0 0 0 0 0 0 0 0 0 0 0.25 0"/>
<feBlend mode="normal" in2="BackgroundImageFix" result="effect1_dropShadow_1_8"/>
<feBlend mode="normal" in="SourceGraphic" in2="effect1_dropShadow_1_8" result="shape"/>
</filter>
<filter id="filter3_d_1_8" x="310.816" y="76.0923" width="14.7232" height="14.7232" filterUnits="userSpaceOnUse" color-interpolation-filters="sRGB">
<feFlood flood-opacity="0" result="BackgroundImageFix"/>
<feColorMatrix in="SourceAlpha" type="matrix" values="0 0 0 0 0 0 0 0 0 0 0 0 0 0 0 0 0 0 127 0" result="hardAlpha"/>
<feOffset dy="1.79273"/>
<feGaussianBlur stdDeviation="0.896365"/>
<feComposite in2="hardAlpha" operator="out"/>
<feColorMatrix type="matrix" values="0 0 0 0 0 0 0 0 0 0 0 0 0 0 0 0 0 0 0.25 0"/>
<feBlend mode="normal" in2="BackgroundImageFix" result="effect1_dropShadow_1_8"/>
<feBlend mode="normal" in="SourceGraphic" in2="effect1_dropShadow_1_8" result="shape"/>
</filter>
<linearGradient id="paint0_linear_1_8" x1="-72.0618" y1="76.1011" x2="422.001" y2="189.691" gradientUnits="userSpaceOnUse">
<stop stop-color="#3596FF"/>
<stop offset="1" stop-color="#B3ACFF"/>
</linearGradient>
<linearGradient id="paint1_linear_1_8" x1="-70.0717" y1="76.2762" x2="429.277" y2="191.081" gradientUnits="userSpaceOnUse">
<stop stop-color="#3596FF"/>
<stop offset="1" stop-color="#B3ACFF"/>
</linearGradient>
<clipPath id="clip0_1_8">
<rect width="23.6948" height="35.6552" fill="white" transform="translate(45.375 60.6016)"/>
</clipPath>
<clipPath id="clip1_1_8">
<rect width="23.6948" height="35.6552" fill="white" transform="translate(96.1611 136.719)"/>
</clipPath>
<clipPath id="clip2_1_8">
<rect width="23.6948" height="35.6552" fill="white" transform="translate(211.75 133.27)"/>
</clipPath>
<clipPath id="clip3_1_8">
<rect width="23.6948" height="35.6552" fill="white" transform="translate(306.33 70.3359)"/>
</clipPath>
</defs>
</svg>
