<svg width="779" height="890" viewBox="0 0 779 890" fill="none" xmlns="http://www.w3.org/2000/svg">
<path d="M900.539 748.995C889.762 727.309 875.685 707.856 858.666 691.116L857.01 689.505L857.01 689.504C809.637 643.895 742.597 622.006 677.469 630.813L675.931 631.026L675.929 631.026C659.927 633.304 645.317 637.174 630.978 641.213L624.846 642.951C611.721 646.681 598.851 650.337 586.806 652.182L585.643 652.355L585.634 652.356C576.307 653.685 567.605 653.358 560.6 651.962C557.102 651.265 553.902 650.276 551.209 649.011C548.619 647.795 546.008 646.095 544.265 643.705L544.209 643.627C543.775 643.012 543.297 642.253 542.851 641.355C540.31 636.242 539.26 629.062 538.729 621.886C538.182 614.499 538.138 606.125 538.093 598.155L538.091 598.155C537.943 573.332 537.689 544.066 524.363 517.249C519.767 508.002 513.82 499.548 506.685 492.138L505.991 491.424L505.988 491.422C479.919 464.847 446.278 459.585 418.834 456.513L413.433 455.923L413.432 455.923C406.658 455.191 399.849 454.461 393.758 453.455C387.74 452.462 381.947 451.128 377.327 449.009L377.327 449.01C368.423 444.95 363.159 436.675 360.447 431.216C353.912 418.065 351.695 400.487 354.45 385.077L354.449 385.077C360.457 351.371 382.772 319.005 405.195 286.295L405.196 286.296L405.93 285.219L405.934 285.213C430.018 250.07 461.962 203.285 469.343 146.979L469.341 146.978C474.058 110.976 467.574 73.7598 450.478 39.3557C429.239 -3.38555 394.511 -36.1724 352.816 -53.0945L352.816 -53.0949C326.322 -63.8446 300.306 -67.7113 274.424 -71.0964L269.249 -71.7691L269.245 -71.7695C263.675 -72.494 258.312 -73.1796 252.962 -73.9427L250.669 -74.2746L250.665 -74.276C240.465 -75.7846 228.794 -77.8457 217.772 -81.2205C206.815 -84.5757 196.015 -89.3692 187.899 -96.6219L187.9 -96.6223C184.793 -99.3981 182.165 -102.929 180.24 -106.802C178.919 -109.461 178.045 -112.066 177.558 -114.403C177.095 -116.626 176.899 -119.002 177.287 -121.08L177.288 -121.08L181.004 -141.064L88.8839 -95.2886L91.2166 -87.1709L91.217 -87.1701C93.2227 -80.1879 95.8916 -73.3211 99.1574 -66.7489C105.99 -52.9994 115.23 -40.7557 126.649 -30.3172L127.761 -29.3126L127.763 -29.3104L128.544 -28.618C160.632 -0.362824 201.013 9.40717 234.279 14.5278L237.502 15.0135C242.61 15.7617 247.681 16.4475 252.666 17.1015L257.624 17.7461L257.625 17.7465L265.798 18.8127C284.477 21.291 302.693 24.1442 318.024 30.2151L318.858 30.5491C340.167 39.2052 358.601 57.0782 369.707 79.4277C378.421 96.9642 382.115 116.422 379.957 134.395L379.851 135.249L379.85 135.251C375.557 168.029 354.832 200.131 331.491 234.182L331.482 234.197L331.472 234.212L330.735 235.272C304.374 273.756 275.404 316.175 265.81 368.009L265.588 369.235L265.586 369.239C259.406 403.71 264.625 441.086 279.796 471.617C293.329 498.85 314.097 519.347 339.797 531.092L339.797 531.092C360.256 540.431 381.648 543.219 400.099 545.243L403.748 545.639C410.098 546.322 417.886 547.161 424.584 548.341C427.929 548.93 431.173 549.632 433.918 550.497C436.387 551.275 439.48 552.481 441.566 554.606L441.565 554.608C442.339 555.387 442.998 556.387 443.566 557.53C445.883 562.194 446.795 569.05 447.26 575.811C447.622 581.086 447.738 586.948 447.793 592.793L447.835 598.612L447.835 598.613C447.987 625.212 448.241 653.839 461.872 681.27C464.418 686.394 467.375 691.328 470.686 695.962L471.354 696.884L471.357 696.889L471.965 697.714C497.648 732.187 543.973 749.093 597.116 741.885L598.383 741.709L598.384 741.708L600.093 741.459C615.431 739.155 629.532 735.423 643.373 731.525L649.509 729.785L649.51 729.786L654.576 728.349C665.941 725.142 677.058 722.161 687.537 720.561L688.699 720.389L688.703 720.388L690.477 720.149C727.156 715.482 766.098 728.058 793.115 753.288L794.413 754.518L794.414 754.52C804.524 764.259 812.957 775.84 819.456 788.918C830.132 810.403 834.834 834.778 832.665 857.772L832.557 858.866C830.625 877.471 824.355 897.207 818.015 917.268C812.754 933.925 807.431 950.802 803.641 968.977L803.279 970.741C794.717 1013.11 798.743 1052.08 814.426 1083.64C822.818 1100.53 834.278 1114.64 848.477 1125.63L848.476 1125.63C857.514 1132.61 866.878 1137.7 875.142 1141.93L878.611 1143.7L878.613 1143.7L880.751 1144.79C882.126 1145.49 883.405 1146.16 884.631 1146.8L886.436 1147.76L886.446 1147.76L886.456 1147.77L891.097 1150.28L974.356 1108.91L967.327 1099.2L967.323 1099.2C965.515 1096.69 963.618 1094.38 961.686 1092.29L960.856 1091.41C947.511 1077.52 932.398 1069.8 919.534 1063.26L919.535 1063.26C914.068 1060.48 907.489 1057.17 903.739 1054.26L903.738 1054.26C903.735 1054.25 903.732 1054.25 903.729 1054.25C903.725 1054.25 903.721 1054.24 903.717 1054.24L903.718 1054.24C900.249 1051.56 897.499 1047.9 895.396 1043.67C891.335 1035.49 889.696 1025.6 889.393 1016.06C889.088 1006.45 890.125 996.739 891.762 988.633L891.761 988.633C894.629 974.397 899.292 959.667 904.094 944.477L904.093 944.476C911.752 920.218 919.47 895.728 922.33 868.24L922.331 868.241C926.565 827.463 919.043 786.234 900.539 748.995Z" fill="url(#paint0_linear_1_8)" stroke="white" stroke-width="12"/>
<path d="M168.11 -123.386C166.211 -113.13 171.761 -98.6064 181.938 -89.5006C199.505 -73.8023 227.531 -68.0003 249.969 -64.6838C256.09 -63.7839 262.228 -62.9794 268.705 -62.1481C295.21 -58.7089 322.617 -55.1546 349.771 -44.1335C422.889 -14.4385 470.312 66.9625 460.058 145.211C452.968 199.322 421.397 245.394 398.348 279.023L397.608 280.105C373.95 314.644 351.588 347.26 345.238 382.855C340.216 410.97 349.573 446.708 373.891 457.818C384.009 462.448 398.151 463.975 413.134 465.582C440.291 468.502 474.098 472.168 499.542 498.094C528.324 527.428 528.558 566.422 528.732 597.758C528.853 618.704 528.952 638.47 536.853 649.27C545.972 661.782 569.044 664.675 587.845 661.981C600.833 660.14 614.225 656.322 628.398 652.289C644.185 647.801 660.493 643.184 678.158 640.643C740.721 631.708 805.241 652.553 850.77 696.369C896.299 740.185 919.568 803.876 913.02 866.748C910.249 893.333 902.6 917.555 895.187 940.989C890.231 956.684 885.546 971.486 882.586 986.188C877.459 1011.52 878.508 1046.53 898.288 1061.85C902.686 1065.25 909.009 1068.47 915.723 1071.87C928.092 1078.16 942.09 1085.28 954.34 1098.03C956.355 1100.13 958.188 1102.38 959.909 1104.75L892.071 1138.46C889.516 1137.06 886.796 1135.69 884.007 1134.26C875.146 1129.76 865.089 1124.64 855.472 1117.19C817.158 1087.54 801.663 1033.39 814.008 972.341C817.722 953.972 823.177 936.665 828.483 919.931C835.118 898.898 841.403 879.035 843.437 859.508C847.701 818.538 831.919 775.36 802.241 746.795C772.563 718.231 728.816 704.107 688.047 709.922C675.068 711.78 661.685 715.572 647.529 719.596C631.742 724.084 615.399 728.719 597.726 731.242C548.012 738.318 504.129 723.093 480.333 690.501C459.138 661.446 458.926 627.812 458.757 598.141C458.63 575.616 458.513 556.163 449.603 547.077C441.695 539.009 424.978 537.224 405.634 535.121C386.706 533.071 365.246 530.763 344.818 521.424C319.434 509.826 301.261 489.946 289.688 466.656C274.87 436.836 270.856 401.388 276.37 370.517C285.358 320.097 314.327 277.809 339.9 240.5L340.64 239.418C365.326 203.373 386.135 170.727 390.679 136.072C396.814 89.1486 367.294 38.4599 323.444 20.6411C304.669 13.0145 282.837 10.1765 259.722 7.19654C253.219 6.35652 246.482 5.48134 239.772 4.48474C207.659 -0.260709 166.753 -9.27771 135.313 -37.378C118.749 -52.1891 107.391 -70.8642 101.758 -90.4792L168.084 -123.438L168.11 -123.386Z" fill="#F1F0FF"/>
<path d="M132.735 -117.307C133.354 -97.4093 143.46 -76.9853 158.621 -63.4266C181.944 -42.597 213.919 -34.6429 244.871 -30.0998C275.813 -25.5307 307.63 -23.518 336.612 -11.7378C395.209 12.0497 433.581 77.9382 425.377 140.659C419.64 184.417 394.445 222.837 369.507 259.246C344.569 295.655 318.561 333.266 310.804 376.707C303.047 420.149 319.217 471.299 359.363 489.638C396.312 506.511 446.136 493.599 474.581 522.602C510.726 559.431 478.197 628.24 508.606 669.911C526.853 694.909 562.154 701.015 592.807 696.633C623.451 692.277 652.476 679.694 683.129 675.312C734.613 667.963 789.071 685.557 826.527 721.625C863.984 757.693 883.634 811.445 878.25 863.149C874.102 902.957 856.256 940.042 848.336 979.277C840.416 1018.51 845.271 1065.02 876.919 1089.53C893.237 1102.15 914.846 1107.41 929.137 1122.27C937.978 1131.48 940.845 1147.18 936.871 1158.45" stroke="url(#paint1_linear_1_8)" stroke-width="3.88" stroke-miterlimit="10" stroke-dasharray="21.29 21.29"/>
<g clip-path="url(#clip0_1_8)">
<path d="M472.976 104.756C472.976 119.355 446.542 157.876 446.542 157.876C446.542 157.876 420.107 119.355 420.107 104.756C420.107 90.1567 431.943 78.3213 446.542 78.3213C461.141 78.3213 472.976 90.1567 472.976 104.756Z" fill="#C2BDFF"/>
<g filter="url(#filter0_d_1_8)">
<path d="M455.327 112.377C460.179 107.524 460.179 99.657 455.327 94.8047C450.474 89.9523 442.607 89.9523 437.755 94.8047C432.902 99.657 432.902 107.524 437.755 112.377C442.607 117.229 450.474 117.229 455.327 112.377Z" fill="white"/>
</g>
<path d="M424.638 107.077C424.638 94.3951 434.919 84.1141 447.602 84.1141C455.015 84.1141 461.606 87.628 465.805 93.0794C461.84 86.196 454.408 81.561 445.893 81.561C433.211 81.561 422.93 91.842 422.93 104.524C422.93 109.793 424.706 114.647 427.691 118.522C425.748 115.153 424.638 111.245 424.638 107.077Z" fill="#B3ACFF"/>
<path d="M440.308 147.765C443.91 153.801 446.541 157.876 446.541 157.876C446.541 157.876 472.975 119.354 472.975 104.755C472.975 103.989 472.935 103.232 472.871 102.483C471.829 106.539 470.354 110.487 468.542 114.257C463.539 124.672 456.139 131.345 448.258 139.795C445.719 142.518 443.074 145.212 440.308 147.765Z" fill="#B3ACFF"/>
</g>
<g clip-path="url(#clip1_1_8)">
<path d="M308.95 359.719C308.95 374.318 282.515 412.839 282.515 412.839C282.515 412.839 256.081 374.318 256.081 359.719C256.081 345.12 267.916 333.284 282.515 333.284C297.114 333.284 308.95 345.12 308.95 359.719Z" fill="#4DA2FF"/>
<g filter="url(#filter1_d_1_8)">
<path d="M291.3 367.339C296.152 362.487 296.152 354.62 291.3 349.768C286.448 344.915 278.581 344.915 273.728 349.768C268.876 354.62 268.876 362.487 273.728 367.339C278.581 372.192 286.448 372.192 291.3 367.339Z" fill="white"/>
</g>
<path d="M260.612 362.04C260.612 349.358 270.893 339.077 283.575 339.077C290.989 339.077 297.579 342.591 301.779 348.042C297.813 341.159 290.381 336.524 281.867 336.524C269.184 336.524 258.903 346.805 258.903 359.487C258.903 364.756 260.679 369.61 263.664 373.485C261.722 370.116 260.612 366.208 260.612 362.04Z" fill="#3596FF"/>
<path d="M276.281 402.728C279.883 408.764 282.515 412.839 282.515 412.839C282.515 412.839 308.949 374.317 308.949 359.718C308.949 358.952 308.909 358.195 308.845 357.446C307.802 361.502 306.327 365.45 304.516 369.22C299.513 379.635 292.113 386.308 284.232 394.758C281.692 397.481 279.047 400.175 276.281 402.728Z" fill="#3596FF"/>
</g>
<g clip-path="url(#clip2_1_8)">
<path d="M534.117 472.479C534.117 487.078 507.682 525.6 507.682 525.6C507.682 525.6 481.248 487.078 481.248 472.479C481.248 457.88 493.083 446.045 507.682 446.045C522.281 446.045 534.117 457.88 534.117 472.479Z" fill="#85ADFF"/>
<g filter="url(#filter2_d_1_8)">
<path d="M516.467 480.1C521.319 475.248 521.319 467.38 516.467 462.528C511.615 457.676 503.748 457.676 498.895 462.528C494.043 467.38 494.043 475.248 498.895 480.1C503.748 484.952 511.615 484.952 516.467 480.1Z" fill="white"/>
</g>
<path d="M485.779 474.801C485.779 462.119 496.06 451.838 508.742 451.838C516.156 451.838 522.746 455.351 526.946 460.803C522.98 453.919 515.548 449.284 507.034 449.284C494.351 449.284 484.07 459.565 484.07 472.248C484.07 477.517 485.846 482.371 488.831 486.246C486.889 482.876 485.779 478.968 485.779 474.801Z" fill="#72A1FF"/>
<path d="M501.448 515.489C505.05 521.524 507.682 525.6 507.682 525.6C507.682 525.6 534.116 487.078 534.116 472.479C534.116 471.713 534.076 470.955 534.012 470.206C532.969 474.262 531.494 478.211 529.683 481.98C524.68 492.396 517.28 499.069 509.399 507.519C506.859 510.242 504.214 512.936 501.448 515.489Z" fill="#72A1FF"/>
</g>
<g clip-path="url(#clip3_1_8)">
<path d="M684.534 605.517C684.534 620.116 658.099 658.638 658.099 658.638C658.099 658.638 631.665 620.116 631.665 605.517C631.665 590.918 643.5 579.083 658.099 579.083C672.698 579.083 684.534 590.918 684.534 605.517Z" fill="#ABA3FF"/>
<g filter="url(#filter3_d_1_8)">
<path d="M666.884 613.138C671.736 608.286 671.736 600.419 666.884 595.566C662.032 590.714 654.165 590.714 649.312 595.566C644.46 600.419 644.46 608.286 649.312 613.138C654.165 617.991 662.032 617.991 666.884 613.138Z" fill="white"/>
</g>
<path d="M636.196 607.839C636.196 595.157 646.477 584.876 659.159 584.876C666.573 584.876 673.163 588.39 677.363 593.841C673.397 586.958 665.965 582.323 657.451 582.323C644.768 582.323 634.487 592.604 634.487 605.286C634.487 610.555 636.263 615.409 639.248 619.284C637.306 615.915 636.196 612.007 636.196 607.839Z" fill="#9D94FF"/>
<path d="M651.865 648.527C655.467 654.562 658.099 658.638 658.099 658.638C658.099 658.638 684.533 620.116 684.533 605.517C684.533 604.751 684.493 603.993 684.429 603.244C683.386 607.3 681.911 611.249 680.1 615.019C675.097 625.434 667.697 632.107 659.816 640.557C657.276 643.28 654.631 645.974 651.865 648.527Z" fill="#9D94FF"/>
</g>
<defs>
<filter id="filter0_d_1_8" x="430.115" y="91.1653" width="32.8506" height="32.8506" filterUnits="userSpaceOnUse" color-interpolation-filters="sRGB">
<feFlood flood-opacity="0" result="BackgroundImageFix"/>
<feColorMatrix in="SourceAlpha" type="matrix" values="0 0 0 0 0 0 0 0 0 0 0 0 0 0 0 0 0 0 127 0" result="hardAlpha"/>
<feOffset dy="4"/>
<feGaussianBlur stdDeviation="2"/>
<feComposite in2="hardAlpha" operator="out"/>
<feColorMatrix type="matrix" values="0 0 0 0 0 0 0 0 0 0 0 0 0 0 0 0 0 0 0.25 0"/>
<feBlend mode="normal" in2="BackgroundImageFix" result="effect1_dropShadow_1_8"/>
<feBlend mode="normal" in="SourceGraphic" in2="effect1_dropShadow_1_8" result="shape"/>
</filter>
<filter id="filter1_d_1_8" x="266.089" y="346.128" width="32.8506" height="32.8506" filterUnits="userSpaceOnUse" color-interpolation-filters="sRGB">
<feFlood flood-opacity="0" result="BackgroundImageFix"/>
<feColorMatrix in="SourceAlpha" type="matrix" values="0 0 0 0 0 0 0 0 0 0 0 0 0 0 0 0 0 0 127 0" result="hardAlpha"/>
<feOffset dy="4"/>
<feGaussianBlur stdDeviation="2"/>
<feComposite in2="hardAlpha" operator="out"/>
<feColorMatrix type="matrix" values="0 0 0 0 0 0 0 0 0 0 0 0 0 0 0 0 0 0 0.25 0"/>
<feBlend mode="normal" in2="BackgroundImageFix" result="effect1_dropShadow_1_8"/>
<feBlend mode="normal" in="SourceGraphic" in2="effect1_dropShadow_1_8" result="shape"/>
</filter>
<filter id="filter2_d_1_8" x="491.256" y="458.889" width="32.8506" height="32.8506" filterUnits="userSpaceOnUse" color-interpolation-filters="sRGB">
<feFlood flood-opacity="0" result="BackgroundImageFix"/>
<feColorMatrix in="SourceAlpha" type="matrix" values="0 0 0 0 0 0 0 0 0 0 0 0 0 0 0 0 0 0 127 0" result="hardAlpha"/>
<feOffset dy="4"/>
<feGaussianBlur stdDeviation="2"/>
<feComposite in2="hardAlpha" operator="out"/>
<feColorMatrix type="matrix" values="0 0 0 0 0 0 0 0 0 0 0 0 0 0 0 0 0 0 0.25 0"/>
<feBlend mode="normal" in2="BackgroundImageFix" result="effect1_dropShadow_1_8"/>
<feBlend mode="normal" in="SourceGraphic" in2="effect1_dropShadow_1_8" result="shape"/>
</filter>
<filter id="filter3_d_1_8" x="641.673" y="591.927" width="32.8506" height="32.8506" filterUnits="userSpaceOnUse" color-interpolation-filters="sRGB">
<feFlood flood-opacity="0" result="BackgroundImageFix"/>
<feColorMatrix in="SourceAlpha" type="matrix" values="0 0 0 0 0 0 0 0 0 0 0 0 0 0 0 0 0 0 127 0" result="hardAlpha"/>
<feOffset dy="4"/>
<feGaussianBlur stdDeviation="2"/>
<feComposite in2="hardAlpha" operator="out"/>
<feColorMatrix type="matrix" values="0 0 0 0 0 0 0 0 0 0 0 0 0 0 0 0 0 0 0.25 0"/>
<feBlend mode="normal" in2="BackgroundImageFix" result="effect1_dropShadow_1_8"/>
<feBlend mode="normal" in="SourceGraphic" in2="effect1_dropShadow_1_8" result="shape"/>
</filter>
<linearGradient id="paint0_linear_1_8" x1="207.041" y1="-160.703" x2="867.618" y2="1168.65" gradientUnits="userSpaceOnUse">
<stop stop-color="#3596FF"/>
<stop offset="1" stop-color="#B3ACFF"/>
</linearGradient>
<linearGradient id="paint1_linear_1_8" x1="210.342" y1="-155.871" x2="877.987" y2="1187.71" gradientUnits="userSpaceOnUse">
<stop stop-color="#3596FF"/>
<stop offset="1" stop-color="#B3ACFF"/>
</linearGradient>
<clipPath id="clip0_1_8">
<rect width="52.8687" height="79.5552" fill="white" transform="translate(420.107 78.3213)"/>
</clipPath>
<clipPath id="clip1_1_8">
<rect width="52.8687" height="79.5552" fill="white" transform="translate(256.081 333.284)"/>
</clipPath>
<clipPath id="clip2_1_8">
<rect width="52.8687" height="79.5552" fill="white" transform="translate(481.248 446.045)"/>
</clipPath>
<clipPath id="clip3_1_8">
<rect width="52.8687" height="79.5552" fill="white" transform="translate(631.665 579.083)"/>
</clipPath>
</defs>
</svg>
