<svg width="20" height="20" viewBox="0 0 20 20" fill="none" xmlns="http://www.w3.org/2000/svg">
<path fill-rule="evenodd" clip-rule="evenodd" d="M6.6868 5.55206C6.6868 4.60723 7.06214 3.70109 7.73024 3.033C8.39833 2.3649 9.30447 1.98956 10.2493 1.98956C11.1941 1.98956 12.1003 2.3649 12.7684 3.033C13.4365 3.70109 13.8118 4.60723 13.8118 5.55206C13.8118 6.4969 13.4365 7.40303 12.7684 8.07113C12.1003 8.73923 11.1941 9.11456 10.2493 9.11456C9.30447 9.11456 8.39833 8.73923 7.73024 8.07113C7.06214 7.40303 6.6868 6.4969 6.6868 5.55206ZM3.71884 16.7185C3.74554 15.0041 4.44531 13.369 5.66711 12.1661C6.8889 10.9632 8.53472 10.289 10.2493 10.289C11.9639 10.289 13.6097 10.9632 14.8315 12.1661C16.0533 13.369 16.7531 15.0041 16.7798 16.7185C16.7818 16.8339 16.7502 16.9474 16.6887 17.0452C16.6273 17.1429 16.5387 17.2206 16.4338 17.2687C14.4936 18.1583 12.3838 18.6175 10.2493 18.6146C8.04372 18.6146 5.94818 18.1332 4.0648 17.2687C3.9599 17.2206 3.8713 17.1429 3.80986 17.0452C3.74841 16.9474 3.71679 16.8339 3.71884 16.7185Z" fill="url(#paint0_linear_78_72)"/>
<defs>
<linearGradient id="paint0_linear_78_72" x1="16.7799" y1="10.3021" x2="3.71875" y2="10.3021" gradientUnits="userSpaceOnUse">
<stop stop-color="#3596FF"/>
<stop offset="1" stop-color="#B3ACFF"/>
</linearGradient>
</defs>
</svg>
