<svg width="40" height="41" viewBox="0 0 40 41" fill="none" xmlns="http://www.w3.org/2000/svg">
<rect y="0.197266" width="40" height="40" rx="20" fill="white" fill-opacity="0.1"/>
<rect x="0.5" y="0.697266" width="39" height="39" rx="19.5" stroke="white" stroke-opacity="0.24"/>
<path fill-rule="evenodd" clip-rule="evenodd" d="M11.25 13.9473C11.25 13.2842 11.5134 12.6483 11.9822 12.1795C12.4511 11.7107 13.087 11.4473 13.75 11.4473H14.8933C15.61 11.4473 16.235 11.9356 16.4092 12.6306L17.33 16.3164C17.4046 16.6148 17.3895 16.9285 17.2867 17.2183C17.1838 17.5081 16.9977 17.7611 16.7517 17.9456L15.6742 18.7539C15.5617 18.8381 15.5375 18.9614 15.5692 19.0473C16.0395 20.3263 16.7822 21.4879 17.7458 22.4515C18.7094 23.4151 19.871 24.1578 21.15 24.6281C21.2358 24.6598 21.3583 24.6356 21.4433 24.5231L22.2517 23.4456C22.4362 23.1996 22.6892 23.0135 22.979 22.9106C23.2688 22.8077 23.5825 22.7926 23.8808 22.8673L27.5667 23.7881C28.2617 23.9623 28.75 24.5873 28.75 25.3048V26.4473C28.75 27.1103 28.4866 27.7462 28.0178 28.215C27.5489 28.6839 26.913 28.9473 26.25 28.9473H24.375C17.1267 28.9473 11.25 23.0706 11.25 15.8223V13.9473Z" fill="white"/>
</svg>
