<svg width="195" height="225" viewBox="0 0 195 225" fill="none" xmlns="http://www.w3.org/2000/svg">
<g clip-path="url(#clip0_69_1202)">
<path d="M113.66 154.079C113.66 150.989 118.51 148.009 122.6 146.789C121.66 141.469 119.98 136.399 117.67 131.709C113.63 133.139 107.69 133.799 106.05 130.959C104.51 128.289 107.22 123.289 110.14 120.179C106.72 116.119 102.74 112.549 98.3296 109.579C95.5496 112.839 90.7396 116.379 87.8996 114.739C85.2196 113.199 85.0796 107.499 86.0596 103.349C81.1596 101.579 75.9496 100.459 70.5296 100.099C69.7496 104.309 67.3496 109.779 64.0796 109.779C60.9896 109.779 58.0196 104.929 56.7896 100.839C51.4696 101.779 46.3996 103.459 41.6996 105.769C43.1396 109.809 43.7996 115.749 40.9596 117.389C38.2896 118.929 33.2896 116.219 30.1896 113.299C26.1296 116.709 22.5596 120.689 19.5896 125.109C22.8496 127.899 26.3896 132.709 24.7496 135.549C23.2096 138.229 17.5096 138.369 13.3596 137.389C11.5796 142.289 10.4596 147.499 10.0996 152.919C14.3096 153.699 19.7796 156.089 19.7796 159.369C19.7796 162.459 14.9296 165.439 10.8396 166.659C11.7796 171.979 13.4596 177.049 15.7696 181.739C19.8096 180.309 25.7496 179.649 27.3896 182.489C28.9296 185.159 26.2196 190.159 23.2996 193.259C26.7196 197.319 30.6996 200.889 35.1096 203.859C37.8996 200.599 42.7096 197.059 45.5396 198.699C48.2096 200.239 48.3696 205.939 47.3796 210.089C52.2796 211.869 57.4896 212.989 62.9096 213.349C63.6896 209.139 66.0896 203.669 69.3596 203.669C72.4496 203.669 75.4196 208.519 76.6496 212.609C81.9696 211.669 87.0396 209.989 91.7396 207.679C90.3096 203.639 89.6396 197.699 92.4796 196.059C95.1496 194.519 100.15 197.229 103.25 200.149C107.31 196.739 110.88 192.759 113.85 188.339C110.59 185.559 107.05 180.739 108.69 177.899C110.23 175.229 115.93 175.079 120.08 176.059C121.86 171.159 122.98 165.949 123.34 160.529C119.13 159.749 113.66 157.359 113.66 154.079ZM66.7096 194.529C45.8296 194.529 28.9096 177.609 28.9096 156.729C28.9096 135.849 45.8296 118.929 66.7096 118.929C87.5896 118.929 104.51 135.849 104.51 156.729C104.51 177.609 87.5896 194.529 66.7096 194.529Z" fill="url(#paint0_linear_69_1202)"/>
<path d="M66.7096 125.849C83.7396 125.849 97.5896 139.699 97.5896 156.729C97.5896 173.759 83.7396 187.609 66.7096 187.609C49.6796 187.609 35.8297 173.759 35.8297 156.729C35.8297 139.699 49.6796 125.849 66.7096 125.849ZM66.7096 123.409C48.3096 123.409 33.3896 138.329 33.3896 156.729C33.3896 175.129 48.3096 190.049 66.7096 190.049C85.1096 190.049 100.03 175.129 100.03 156.729C100.03 138.329 85.1096 123.409 66.7096 123.409Z" fill="url(#paint1_linear_69_1202)"/>
<path d="M99.3898 47.8485C99.3898 45.6585 102.84 43.5385 105.74 42.6685C105.07 38.8885 103.88 35.2885 102.23 31.9485C99.3598 32.9685 95.1398 33.4385 93.9698 31.4185C92.8698 29.5185 94.7998 25.9685 96.8798 23.7585C94.4498 20.8785 91.6198 18.3385 88.4798 16.2285C86.4998 18.5385 83.0798 21.0585 81.0598 19.8985C79.1598 18.7985 79.0498 14.7485 79.7498 11.7985C76.2698 10.5385 72.5598 9.73853 68.7098 9.48853C68.1598 12.4785 66.4498 16.3685 64.1198 16.3685C61.9298 16.3685 59.8098 12.9185 58.9398 10.0185C55.1598 10.6885 51.5598 11.8785 48.2198 13.5285C49.2398 16.3985 49.7098 20.6285 47.6898 21.7885C45.7898 22.8885 42.2398 20.9585 40.0298 18.8785C37.1498 21.3085 34.6098 24.1285 32.4998 27.2685C34.8098 29.2485 37.3298 32.6685 36.1698 34.6885C35.0698 36.5885 31.0298 36.6985 28.0698 35.9985C26.8098 39.4785 26.0098 43.1885 25.7598 47.0385C28.7498 47.5885 32.6398 49.2985 32.6398 51.6285C32.6398 53.8185 29.1898 55.9385 26.2898 56.8085C26.9598 60.5885 28.1498 64.1885 29.7998 67.5285C32.6698 66.5085 36.8898 66.0385 38.0598 68.0585C39.1598 69.9585 37.2298 73.5085 35.1498 75.7185C37.5798 78.6085 40.4098 81.1385 43.5498 83.2485C45.5298 80.9385 48.9498 78.4185 50.9698 79.5785C52.8698 80.6785 52.9798 84.7185 52.2798 87.6785C55.7598 88.9385 59.4698 89.7385 63.3198 89.9885C63.8798 86.9985 65.5798 83.1085 67.9098 83.1085C70.0998 83.1085 72.2198 86.5585 73.0898 89.4685C76.8698 88.7985 80.4798 87.6085 83.8098 85.9585C82.7898 83.0885 82.3198 78.8685 84.3398 77.6985C86.2398 76.5985 89.7898 78.5285 91.9998 80.6085C94.8898 78.1785 97.4298 75.3485 99.5298 72.2085C97.2198 70.2285 94.6998 66.8085 95.8598 64.7885C96.9598 62.8885 101.01 62.7785 103.96 63.4785C105.22 59.9985 106.02 56.2885 106.27 52.4385C103.28 51.8785 99.3898 50.1785 99.3898 47.8485ZM66.0198 76.5985C51.1798 76.5985 39.1498 64.5685 39.1498 49.7285C39.1498 34.8885 51.1798 22.8585 66.0198 22.8585C80.8598 22.8585 92.8898 34.8885 92.8898 49.7285C92.8898 64.5685 80.8598 76.5985 66.0198 76.5985Z" fill="url(#paint2_linear_69_1202)"/>
<path d="M66.0201 27.7786C78.1201 27.7786 87.9701 37.6286 87.9701 49.7286C87.9701 61.8286 78.1201 71.6786 66.0201 71.6786C53.9201 71.6786 44.0701 61.8286 44.0701 49.7286C44.0701 37.6286 53.9101 27.7786 66.0201 27.7786ZM66.0201 26.0486C52.9401 26.0486 42.3301 36.6486 42.3301 49.7386C42.3301 62.8186 52.9301 73.4286 66.0201 73.4286C79.1001 73.4286 89.7101 62.8286 89.7101 49.7386C89.7101 36.6486 79.1001 26.0486 66.0201 26.0486Z" fill="url(#paint3_linear_69_1202)"/>
<path d="M179.85 87.4585C179.85 85.2685 183.3 83.1485 186.2 82.2785C185.53 78.4985 184.34 74.8985 182.69 71.5585C179.82 72.5785 175.6 73.0485 174.43 71.0285C173.33 69.1285 175.26 65.5785 177.34 63.3685C174.91 60.4885 172.08 57.9485 168.94 55.8385C166.96 58.1485 163.54 60.6685 161.52 59.5085C159.62 58.4085 159.51 54.3585 160.21 51.4085C156.73 50.1485 153.02 49.3485 149.17 49.0985C148.62 52.0885 146.91 55.9785 144.58 55.9785C142.39 55.9785 140.27 52.5285 139.4 49.6285C135.62 50.2985 132.02 51.4885 128.68 53.1385C129.7 56.0085 130.17 60.2385 128.15 61.3985C126.25 62.4985 122.7 60.5685 120.49 58.4885C117.61 60.9185 115.07 63.7385 112.96 66.8785C115.27 68.8585 117.79 72.2785 116.63 74.2985C115.53 76.1985 111.49 76.3085 108.53 75.6085C107.27 79.0885 106.47 82.7985 106.22 86.6485C109.21 87.1985 113.1 88.9085 113.1 91.2385C113.1 93.4285 109.65 95.5485 106.75 96.4185C107.42 100.199 108.61 103.799 110.26 107.139C113.13 106.119 117.35 105.649 118.52 107.669C119.62 109.569 117.69 113.119 115.61 115.329C118.04 118.219 120.87 120.749 124.01 122.859C125.99 120.549 129.41 118.029 131.43 119.189C133.33 120.289 133.44 124.329 132.74 127.289C136.22 128.549 139.93 129.349 143.78 129.599C144.34 126.609 146.04 122.719 148.37 122.719C150.56 122.719 152.68 126.169 153.55 129.079C157.33 128.409 160.94 127.219 164.27 125.569C163.25 122.699 162.78 118.479 164.8 117.309C166.7 116.209 170.25 118.139 172.46 120.219C175.35 117.789 177.89 114.959 179.99 111.819C177.68 109.839 175.16 106.419 176.32 104.399C177.42 102.499 181.47 102.389 184.42 103.089C185.68 99.6085 186.48 95.8985 186.73 92.0485C183.74 91.4885 179.85 89.7885 179.85 87.4585ZM146.48 116.219C131.64 116.219 119.61 104.189 119.61 89.3485C119.61 74.5085 131.64 62.4785 146.48 62.4785C161.32 62.4785 173.35 74.5085 173.35 89.3485C173.35 104.189 161.32 116.219 146.48 116.219Z" fill="url(#paint4_linear_69_1202)"/>
<path d="M146.48 67.3984C158.58 67.3984 168.43 77.2484 168.43 89.3484C168.43 101.448 158.58 111.298 146.48 111.298C134.38 111.298 124.53 101.448 124.53 89.3484C124.53 77.2385 134.38 67.3984 146.48 67.3984ZM146.48 65.6584C133.4 65.6584 122.79 76.2584 122.79 89.3484C122.79 102.428 133.39 113.038 146.48 113.038C159.56 113.038 170.17 102.438 170.17 89.3484C170.17 76.2684 159.56 65.6584 146.48 65.6584Z" fill="url(#paint5_linear_69_1202)"/>
<path d="M27.6098 82.6585C26.9498 81.8885 26.3098 81.0985 25.7098 80.2985L26.5098 79.6985C27.0998 80.4785 27.7298 81.2585 28.3798 82.0085L27.6098 82.6585ZM22.8598 76.1285C22.3398 75.2685 21.8298 74.3885 21.3598 73.4985L22.2398 73.0285C22.6998 73.8985 23.1998 74.7685 23.7098 75.6085L22.8598 76.1285ZM19.2298 68.9285C18.8498 67.9985 18.4998 67.0385 18.1798 66.0885L19.1298 65.7685C19.4398 66.7085 19.7898 67.6385 20.1598 68.5485L19.2298 68.9285ZM16.8098 61.2285C16.5898 60.2485 16.3898 59.2485 16.2298 58.2585L17.2198 58.0985C17.3798 59.0685 17.5698 60.0485 17.7898 61.0085L16.8098 61.2285ZM15.6798 53.2385C15.6198 52.2385 15.5898 51.2185 15.5898 50.2085H16.5898C16.5898 51.1985 16.6198 52.1985 16.6798 53.1785L15.6798 53.2385ZM16.8398 45.2685L15.8398 45.1685C15.9398 44.1685 16.0698 43.1585 16.2298 42.1685L17.2198 42.3285C17.0598 43.3085 16.9298 44.2985 16.8398 45.2685ZM18.2598 37.4985L17.2898 37.2385C17.5498 36.2685 17.8498 35.2885 18.1698 34.3385L19.1198 34.6585C18.7998 35.5885 18.5198 36.5385 18.2598 37.4985ZM110.66 31.8385C110.29 30.9285 109.89 30.0085 109.46 29.1285L110.36 28.6985C110.79 29.5985 111.2 30.5285 111.58 31.4685L110.66 31.8385ZM20.9298 30.0485L20.0198 29.6385C20.4398 28.7185 20.8898 27.8085 21.3598 26.9185L22.2398 27.3785C21.7798 28.2585 21.3398 29.1485 20.9298 30.0485ZM107.1 24.7785C106.59 23.9385 106.04 23.1085 105.48 22.2985L106.3 21.7285C106.88 22.5585 107.43 23.4085 107.96 24.2585L107.1 24.7785ZM24.7698 23.1385L23.9398 22.5885C24.4998 21.7485 25.0898 20.9185 25.6998 20.1185L26.4998 20.7185C25.8998 21.4985 25.3198 22.3185 24.7698 23.1385ZM102.45 18.3885C101.81 17.6385 101.13 16.8985 100.45 16.1985L101.17 15.4985C101.87 16.2185 102.56 16.9685 103.21 17.7385L102.45 18.3885ZM29.6798 16.9285L28.9498 16.2485C29.6298 15.5185 30.3498 14.7885 31.0798 14.0985L31.7698 14.8185C31.0498 15.4985 30.3498 16.2085 29.6798 16.9285ZM96.8298 12.8285C96.0798 12.1985 95.2898 11.5785 94.4998 10.9885L95.0998 10.1885C95.9098 10.7885 96.7098 11.4185 97.4798 12.0685L96.8298 12.8285ZM35.5198 11.5985L34.9098 10.8085C35.6998 10.1885 36.5298 9.59854 37.3598 9.02854L37.9198 9.85854C37.1098 10.4085 36.2998 10.9985 35.5198 11.5985ZM90.3898 8.23854C89.5398 7.73854 88.6698 7.24854 87.7898 6.79854L88.2498 5.90854C89.1498 6.36854 90.0398 6.86854 90.8998 7.37854L90.3898 8.23854ZM42.1398 7.26854L41.6598 6.38854C42.5398 5.90854 43.4498 5.44854 44.3598 5.02854L44.7798 5.93854C43.8998 6.34854 43.0098 6.79854 42.1398 7.26854ZM83.2798 4.74854C82.3598 4.38854 81.4198 4.04854 80.4798 3.74854L80.7898 2.79854C81.7498 3.10854 82.7098 3.44854 83.6498 3.81854L83.2798 4.74854ZM49.3698 4.07854L49.0398 3.13854C49.9898 2.80854 50.9598 2.49854 51.9298 2.22854L52.1998 3.18854C51.2498 3.44854 50.2998 3.74854 49.3698 4.07854ZM75.7098 2.46854C74.7498 2.25854 73.7598 2.07854 72.7898 1.93854L72.9398 0.94854C73.9298 1.09854 74.9298 1.27854 75.9198 1.48854L75.7098 2.46854ZM57.0198 2.09854L56.8498 1.10854C57.8398 0.93854 58.8498 0.79854 59.8498 0.67854L59.9598 1.66854C58.9798 1.78854 57.9898 1.92854 57.0198 2.09854ZM67.8698 1.43854C67.0498 1.39854 66.2398 1.37854 65.4098 1.37854H64.8998L64.8898 0.37854H65.4198C66.2598 0.37854 67.0898 0.39854 67.9198 0.43854L67.8698 1.43854Z" fill="url(#paint6_linear_69_1202)"/>
<path d="M146.88 137.249L146.87 136.249C147.85 136.239 148.85 136.199 149.84 136.119L149.91 137.119C148.9 137.199 147.88 137.239 146.88 137.249ZM154.91 136.489L154.73 135.509C155.7 135.339 156.68 135.129 157.63 134.899L157.87 135.869C156.9 136.099 155.9 136.309 154.91 136.489ZM162.71 134.409L162.37 133.469C163.3 133.139 164.22 132.769 165.13 132.379L165.53 133.299C164.6 133.699 163.66 134.069 162.71 134.409ZM170.05 131.059L169.56 130.189C170.42 129.709 171.27 129.189 172.1 128.659L172.64 129.499C171.8 130.039 170.92 130.569 170.05 131.059ZM176.73 126.539L176.1 125.759C176.87 125.139 177.62 124.489 178.35 123.829L179.02 124.569C178.29 125.249 177.52 125.909 176.73 126.539ZM182.58 120.979L181.83 120.309C182.48 119.579 183.13 118.809 183.74 118.029L184.53 118.649C183.91 119.449 183.25 120.229 182.58 120.979ZM187.44 114.529L186.59 113.999C187.12 113.169 187.62 112.299 188.09 111.439L188.97 111.919C188.49 112.799 187.98 113.679 187.44 114.529ZM191.16 107.359L190.24 106.969C190.62 106.059 190.98 105.119 191.3 104.189L192.25 104.519C191.91 105.479 191.55 106.429 191.16 107.359ZM193.64 99.6686L192.67 99.4386C192.89 98.4786 193.09 97.4986 193.25 96.5286L194.24 96.6886C194.06 97.6886 193.86 98.6886 193.64 99.6686ZM194.8 91.6886L193.8 91.6286C193.86 90.6486 193.89 89.6486 193.89 88.6586H194.89C194.89 89.6686 194.86 90.6886 194.8 91.6886ZM193.78 85.3886C193.71 84.3986 193.61 83.4086 193.49 82.4386L194.48 82.3086C194.61 83.2986 194.71 84.3186 194.78 85.3186L193.78 85.3886ZM192.59 77.5686C192.36 76.6086 192.1 75.6486 191.81 74.7086L192.77 74.4186C193.06 75.3786 193.33 76.3586 193.57 77.3386L192.59 77.5686ZM190.12 70.0586C189.74 69.1586 189.32 68.2486 188.88 67.3686L189.77 66.9186C190.22 67.8186 190.65 68.7486 191.04 69.6686L190.12 70.0586ZM186.44 63.0786C185.91 62.2486 185.35 61.4186 184.77 60.6286L185.58 60.0386C186.17 60.8486 186.75 61.6886 187.29 62.5386L186.44 63.0786ZM181.65 56.7886C180.99 56.0486 180.29 55.3286 179.59 54.6486L180.29 53.9386C181 54.6386 181.71 55.3786 182.39 56.1286L181.65 56.7886ZM175.88 51.3786C175.1 50.7586 174.3 50.1686 173.5 49.6086L174.07 48.7886C174.89 49.3586 175.71 49.9686 176.5 50.5986L175.88 51.3786ZM121.19 48.2086L120.66 47.3586C121.51 46.8286 122.39 46.3186 123.28 45.8386L123.75 46.7186C122.89 47.1886 122.03 47.6886 121.19 48.2086ZM169.3 46.9886C168.44 46.5086 167.55 46.0586 166.66 45.6286L167.09 44.7286C168 45.1586 168.91 45.6286 169.79 46.1086L169.3 46.9886ZM128.23 44.6086L127.85 43.6886C128.78 43.3086 129.73 42.9486 130.69 42.6286L131.01 43.5786C130.07 43.8886 129.14 44.2386 128.23 44.6086ZM162.09 43.7486C161.16 43.4186 160.21 43.1186 159.26 42.8486L159.53 41.8886C160.5 42.1586 161.47 42.4686 162.42 42.7986L162.09 43.7486ZM135.77 42.2286L135.55 41.2486C136.53 41.0286 137.53 40.8286 138.53 40.6786L138.69 41.6686C137.71 41.8286 136.73 42.0186 135.77 42.2286ZM154.44 41.7586C153.47 41.5886 152.48 41.4486 151.5 41.3486L151.61 40.3586C152.61 40.4686 153.62 40.6086 154.61 40.7786L154.44 41.7586ZM143.6 41.1386L143.54 40.1386C144.45 40.0886 145.38 40.0586 146.3 40.0586H146.57L146.56 41.0586H146.29C145.4 41.0686 144.49 41.0886 143.6 41.1386Z" fill="url(#paint7_linear_69_1202)"/>
<path d="M67.3 224.089C66.62 224.089 65.94 224.079 65.26 224.059L65.29 223.059C66.28 223.089 67.27 223.099 68.27 223.079L68.28 224.079C67.96 224.089 67.63 224.089 67.3 224.089ZM73.31 223.819L73.22 222.819C74.21 222.729 75.21 222.619 76.18 222.489L76.31 223.479C75.33 223.619 74.32 223.729 73.31 223.819ZM60.24 223.719C59.24 223.619 58.23 223.489 57.24 223.339L57.39 222.349C58.37 222.499 59.36 222.619 60.34 222.729L60.24 223.719ZM81.28 222.639L81.07 221.659C82.04 221.449 83.02 221.229 83.97 220.979L84.22 221.949C83.26 222.189 82.27 222.429 81.28 222.639ZM52.3 222.409C51.32 222.189 50.34 221.939 49.37 221.669L49.64 220.709C50.59 220.969 51.56 221.219 52.53 221.439L52.3 222.409ZM89.04 220.499L88.72 219.549C89.66 219.229 90.6 218.889 91.51 218.529L91.88 219.459C90.95 219.829 89.99 220.179 89.04 220.499ZM44.57 220.149C43.62 219.809 42.67 219.439 41.74 219.059L42.12 218.139C43.03 218.519 43.97 218.879 44.9 219.209L44.57 220.149ZM96.49 217.449L96.06 216.549C96.95 216.119 97.84 215.669 98.71 215.199L99.18 216.079C98.3 216.549 97.39 217.009 96.49 217.449ZM37.16 216.979C36.26 216.529 35.36 216.049 34.49 215.559L34.98 214.689C35.84 215.169 36.73 215.639 37.61 216.089L37.16 216.979ZM103.51 213.529L102.97 212.689C103.8 212.159 104.63 211.599 105.44 211.029L106.02 211.849C105.2 212.419 104.35 212.989 103.51 213.529ZM30.18 212.929C29.34 212.369 28.51 211.789 27.7 211.199L28.29 210.389C29.09 210.969 29.91 211.539 30.74 212.089L30.18 212.929ZM110.02 208.789L109.38 208.019C110.15 207.389 110.9 206.739 111.64 206.079L112.31 206.819C111.57 207.489 110.8 208.149 110.02 208.789ZM23.74 208.089C22.98 207.439 22.22 206.759 21.48 206.079L22.16 205.349C22.89 206.029 23.63 206.689 24.39 207.329L23.74 208.089ZM115.93 203.319L115.21 202.629C115.89 201.919 116.57 201.179 117.22 200.429L117.97 201.089C117.31 201.849 116.62 202.599 115.93 203.319ZM17.93 202.519C17.24 201.779 16.57 201.019 15.93 200.259L16.69 199.609C17.32 200.359 17.99 201.109 18.66 201.839L17.93 202.519ZM121.14 197.179L120.34 196.579C120.93 195.789 121.52 194.979 122.08 194.159L122.91 194.719C122.33 195.549 121.74 196.379 121.14 197.179ZM12.82 196.299C12.23 195.489 11.66 194.659 11.1 193.819L11.93 193.269C12.48 194.099 13.04 194.909 13.62 195.709L12.82 196.299ZM8.48 189.519C7.99 188.649 7.52 187.749 7.07 186.849L7.96 186.399C8.4 187.289 8.87 188.159 9.35 189.029L8.48 189.519ZM4.99 182.269C4.61 181.339 4.25 180.389 3.91 179.449L4.85 179.109C5.18 180.039 5.54 180.979 5.92 181.889L4.99 182.269ZM2.4 174.649C2.13 173.679 1.89 172.689 1.67 171.719L2.65 171.499C2.87 172.459 3.11 173.429 3.37 174.389L2.4 174.649ZM0.74 166.769C0.59 165.779 0.47 164.769 0.36 163.769L1.36 163.669C1.46 164.649 1.59 165.649 1.73 166.619L0.74 166.769ZM0.03 158.749C0.01 158.099 0 157.439 0 156.789C0 156.439 0 156.079 0.01 155.729L1.01 155.749C1 156.089 1 156.439 1 156.789C1 157.439 1.01 158.079 1.03 158.729L0.03 158.749ZM1.27 150.789L0.27 150.699C0.36 149.709 0.47 148.699 0.61 147.699L1.6 147.829C1.47 148.819 1.35 149.809 1.27 150.789ZM2.45 142.949L1.47 142.739C1.68 141.759 1.91 140.769 2.16 139.799L3.13 140.049C2.88 141.009 2.65 141.979 2.45 142.949ZM4.56 135.299L3.61 134.979C3.93 134.029 4.29 133.079 4.66 132.139L5.59 132.509C5.22 133.419 4.88 134.369 4.56 135.299ZM7.58 127.949L6.68 127.509C7.12 126.609 7.58 125.699 8.06 124.819L8.94 125.299C8.47 126.169 8.01 127.059 7.58 127.949ZM11.46 121.029L10.62 120.489C11.16 119.649 11.73 118.809 12.31 117.979L13.13 118.559C12.55 119.359 12 120.189 11.46 121.029ZM16.14 114.609L15.37 113.969C16.01 113.199 16.67 112.429 17.35 111.679L18.09 112.349C17.42 113.089 16.77 113.849 16.14 114.609ZM21.54 108.799L20.85 108.079C21.58 107.389 22.33 106.699 23.08 106.039L23.74 106.789C23 107.449 22.26 108.119 21.54 108.799ZM27.6 103.679L27 102.879C27.8 102.279 28.63 101.689 29.46 101.129L30.02 101.959C29.2 102.509 28.39 103.089 27.6 103.679Z" fill="url(#paint8_linear_69_1202)"/>
<path d="M113.64 37.3385L107.63 33.1485L114.9 30.2285L113.64 37.3385Z" fill="url(#paint9_linear_69_1202)"/>
<path d="M115.71 50.8186L118.98 44.2686L122.93 51.0386L115.71 50.8186Z" fill="url(#paint10_linear_69_1202)"/>
<path d="M125.69 189.369L125.55 196.689L119.07 192.269L125.69 189.369Z" fill="url(#paint11_linear_69_1202)"/>
</g>
<defs>
<linearGradient id="paint0_linear_69_1202" x1="123.34" y1="156.724" x2="10.0996" y2="156.724" gradientUnits="userSpaceOnUse">
<stop stop-color="#3596FF"/>
<stop offset="1" stop-color="#B3ACFF"/>
</linearGradient>
<linearGradient id="paint1_linear_69_1202" x1="100.03" y1="156.729" x2="33.3896" y2="156.729" gradientUnits="userSpaceOnUse">
<stop stop-color="#3596FF"/>
<stop offset="1" stop-color="#B3ACFF"/>
</linearGradient>
<linearGradient id="paint2_linear_69_1202" x1="106.27" y1="49.7385" x2="25.7598" y2="49.7385" gradientUnits="userSpaceOnUse">
<stop stop-color="#3596FF"/>
<stop offset="1" stop-color="#B3ACFF"/>
</linearGradient>
<linearGradient id="paint3_linear_69_1202" x1="89.7101" y1="49.7386" x2="42.3301" y2="49.7386" gradientUnits="userSpaceOnUse">
<stop stop-color="#3596FF"/>
<stop offset="1" stop-color="#B3ACFF"/>
</linearGradient>
<linearGradient id="paint4_linear_69_1202" x1="186.73" y1="89.3485" x2="106.22" y2="89.3485" gradientUnits="userSpaceOnUse">
<stop stop-color="#3596FF"/>
<stop offset="1" stop-color="#B3ACFF"/>
</linearGradient>
<linearGradient id="paint5_linear_69_1202" x1="170.17" y1="89.3484" x2="122.79" y2="89.3484" gradientUnits="userSpaceOnUse">
<stop stop-color="#3596FF"/>
<stop offset="1" stop-color="#B3ACFF"/>
</linearGradient>
<linearGradient id="paint6_linear_69_1202" x1="111.58" y1="41.5185" x2="15.5898" y2="41.5185" gradientUnits="userSpaceOnUse">
<stop stop-color="#3596FF"/>
<stop offset="1" stop-color="#B3ACFF"/>
</linearGradient>
<linearGradient id="paint7_linear_69_1202" x1="194.89" y1="88.6536" x2="120.66" y2="88.6536" gradientUnits="userSpaceOnUse">
<stop stop-color="#3596FF"/>
<stop offset="1" stop-color="#B3ACFF"/>
</linearGradient>
<linearGradient id="paint8_linear_69_1202" x1="122.91" y1="162.609" x2="0" y2="162.609" gradientUnits="userSpaceOnUse">
<stop stop-color="#3596FF"/>
<stop offset="1" stop-color="#B3ACFF"/>
</linearGradient>
<linearGradient id="paint9_linear_69_1202" x1="114.9" y1="33.7835" x2="107.63" y2="33.7835" gradientUnits="userSpaceOnUse">
<stop stop-color="#3596FF"/>
<stop offset="1" stop-color="#B3ACFF"/>
</linearGradient>
<linearGradient id="paint10_linear_69_1202" x1="122.93" y1="47.6536" x2="115.71" y2="47.6536" gradientUnits="userSpaceOnUse">
<stop stop-color="#3596FF"/>
<stop offset="1" stop-color="#B3ACFF"/>
</linearGradient>
<linearGradient id="paint11_linear_69_1202" x1="125.69" y1="193.029" x2="119.07" y2="193.029" gradientUnits="userSpaceOnUse">
<stop stop-color="#3596FF"/>
<stop offset="1" stop-color="#B3ACFF"/>
</linearGradient>
<clipPath id="clip0_69_1202">
<rect width="194.89" height="223.71" fill="white" transform="translate(0 0.37854)"/>
</clipPath>
</defs>
</svg>
