<svg width="229" height="239" viewBox="0 0 229 239" fill="none" xmlns="http://www.w3.org/2000/svg">
<path d="M112.36 91.0928C113.055 88.345 117.863 86.9841 121.615 86.9844C122.011 81.9895 121.728 77.0246 120.811 72.2128C117.047 72.4119 111.84 71.4127 111.079 68.4377C110.364 65.6397 113.804 61.9123 116.998 59.9226C115 55.3942 112.415 51.1418 109.321 47.3122C106.215 49.465 101.316 51.339 99.2633 49.123C97.3353 47.0275 98.4891 41.9047 100.264 38.467C96.4936 35.5758 92.3011 33.1752 87.7662 31.4119C86.1579 34.9563 82.8736 39.1931 80.081 38.3158C77.4563 37.4912 76.0106 32.3644 75.8885 28.3983C71.1454 27.8156 66.453 27.9532 61.9262 28.7659C62.2376 32.7508 61.4582 38.2351 58.669 38.9299C56.0426 39.5947 52.4005 35.8365 50.4121 32.3947C46.189 34.3591 42.2496 36.941 38.724 40.0862C40.864 43.4402 42.7986 48.68 40.7671 50.7777C38.8456 52.7474 33.9687 51.3643 30.6433 49.3715C28.0285 53.2633 25.892 57.617 24.3703 62.3533C27.7792 64.1692 31.8986 67.7793 31.159 70.7027C30.4638 73.4505 25.656 74.8114 21.9041 74.811C21.5072 79.806 21.7906 84.7708 22.708 89.5827C26.4715 89.3835 31.6784 90.3828 32.4394 93.3577C33.1547 96.1558 29.7146 99.8832 26.5202 101.873C28.5152 106.414 31.1039 110.654 34.1974 114.483C37.3037 112.331 42.2026 110.456 44.2554 112.672C46.1834 114.768 45.0327 119.878 43.2542 123.329C47.025 126.22 51.2176 128.62 55.7525 130.384C57.3728 126.843 60.6451 122.602 63.4376 123.48C66.0624 124.304 67.5081 129.431 67.627 133.41C72.3701 133.992 77.0745 133.859 81.5893 133.042C81.2778 129.057 82.0541 123.586 84.8465 122.878C87.4729 122.213 91.115 125.972 93.1034 129.413C97.3385 127.453 101.281 124.858 104.795 121.709C102.655 118.355 100.72 113.115 102.752 111.018C104.673 109.048 109.562 110.435 112.875 112.424C115.49 108.532 117.627 104.179 119.148 99.4422C115.743 97.6137 111.62 94.0161 112.36 91.0928ZM63.2389 114.6C45.453 109.013 34.8537 89.3893 39.5644 70.77C44.2752 52.1506 62.5121 41.5865 80.298 47.174C98.084 52.7616 108.683 72.3848 103.973 91.0042C99.2618 109.624 81.0249 120.188 63.2389 114.6Z" fill="url(#paint0_linear_69_1245)"/>
<path d="M78.7362 53.3468C93.2383 57.9027 101.917 73.97 98.0759 89.1515C94.2349 104.333 79.3027 112.983 64.8007 108.427C50.2987 103.871 41.6201 87.8039 45.4611 72.6223C49.3021 57.4407 64.2222 48.7872 78.7362 53.3468ZM79.2854 51.1762C63.6088 46.2513 47.5277 55.556 43.3725 71.9797C39.2204 88.3908 48.5566 105.694 64.2452 110.623C79.9218 115.548 96.0028 106.243 100.158 89.8192C104.313 73.3956 94.962 56.1011 79.2854 51.1762Z" fill="url(#paint1_linear_69_1245)"/>
<path d="M194.305 170.359C195 167.611 199.808 166.25 203.56 166.251C203.957 161.256 203.673 156.291 202.756 151.479C198.993 151.678 193.786 150.679 193.025 147.704C192.309 144.906 195.749 141.178 198.944 139.189C196.946 134.66 194.36 130.408 191.267 126.578C188.16 128.731 183.261 130.605 181.209 128.389C179.281 126.294 180.434 121.171 182.21 117.733C178.439 114.842 174.246 112.441 169.711 110.678C168.103 114.222 164.819 118.459 162.026 117.582C159.402 116.757 157.956 111.63 157.834 107.664C153.091 107.082 148.398 107.219 143.872 108.032C144.183 112.017 143.403 117.501 140.614 118.196C137.988 118.861 134.346 115.103 132.357 111.661C128.134 113.625 124.195 116.207 120.669 119.352C122.809 122.706 124.744 127.946 122.712 130.044C120.791 132.013 115.914 130.63 112.589 128.638C109.974 132.529 107.837 136.883 106.316 141.619C109.725 143.435 113.844 147.045 113.104 149.969C112.409 152.717 107.601 154.077 103.849 154.077C103.453 159.072 103.736 164.037 104.653 168.849C108.417 168.65 113.624 169.649 114.385 172.624C115.1 175.422 111.66 179.149 108.466 181.139C110.46 185.68 113.049 189.92 116.143 193.749C119.249 191.597 124.148 189.723 126.201 191.939C128.129 194.034 126.978 199.144 125.199 202.595C128.97 205.486 133.163 207.886 137.698 209.65C139.318 206.109 142.59 201.868 145.383 202.746C148.008 203.57 149.453 208.697 149.572 212.676C154.315 213.258 159.02 213.125 163.535 212.308C163.223 208.323 163.999 202.852 166.792 202.144C169.418 201.479 173.06 205.238 175.049 208.679C179.284 206.719 183.226 204.124 186.74 200.975C184.6 197.621 182.665 192.382 184.697 190.284C186.618 188.314 191.507 189.701 194.821 191.69C197.435 187.798 199.572 183.445 201.094 178.708C197.688 176.88 193.565 173.282 194.305 170.359ZM145.181 193.879C127.395 188.291 116.796 168.668 121.507 150.049C126.217 131.429 144.454 120.865 162.24 126.453C180.026 132.04 190.625 151.663 185.915 170.283C181.204 188.902 162.967 199.466 145.181 193.879Z" fill="url(#paint2_linear_69_1245)"/>
<path d="M160.678 132.626C175.18 137.181 183.859 153.249 180.018 168.43C176.177 183.612 161.245 192.262 146.743 187.706C132.241 183.15 123.562 167.083 127.403 151.901C131.247 136.707 146.176 128.07 160.678 132.626ZM161.231 130.442C145.554 125.518 129.473 134.822 125.318 151.246C121.166 167.657 130.502 184.96 146.19 189.889C161.867 194.814 177.948 185.509 182.103 169.085C186.256 152.674 176.907 135.367 161.231 130.442Z" fill="url(#paint3_linear_69_1245)"/>
<path d="M15.5379 107.572C14.9922 106.359 14.4767 105.129 14.0123 103.902L15.1598 103.451C15.6186 104.65 16.1252 105.864 16.6654 107.047L15.5379 107.572ZM11.9235 97.6079C11.5738 96.3353 11.2424 95.0414 10.962 93.7501L12.1641 93.4921C12.4388 94.7547 12.7614 96.0323 13.1054 97.2761L11.9235 97.6079ZM9.8616 87.2256C9.70163 85.918 9.58707 84.5841 9.50524 83.2739L10.7435 83.2302C10.8165 84.5241 10.9406 85.8204 11.0949 87.0992L9.8616 87.2256ZM9.40618 76.672C9.45352 75.3618 9.53113 74.0342 9.65344 72.7341L10.8888 72.9058C10.7729 74.1808 10.6896 75.4797 10.6486 76.7648L9.40618 76.672ZM10.5864 66.2399C10.8315 64.9649 11.1189 63.6761 11.439 62.4111L12.6357 62.7869C12.3219 64.0269 12.0408 65.2907 11.802 66.5406L10.5864 66.2399ZM14.5005 56.6937L13.3356 56.1925C13.7722 54.9776 14.2479 53.7615 14.7531 52.5817L15.8871 53.1542C15.385 54.3215 14.9157 55.5126 14.5005 56.6937ZM18.6625 47.4956L17.5841 46.8054C18.2027 45.6882 18.8723 44.5735 19.5563 43.5039L20.5917 44.2618C19.914 45.3063 19.2779 46.3909 18.6625 47.4956ZM131.028 75.1362C130.873 73.8574 130.686 72.5547 130.45 71.2909L131.664 71.0907C131.893 72.3795 132.089 73.6984 132.246 75.0186L131.028 75.1362ZM24.2188 39.1682L23.2598 38.3126C24.054 37.3182 24.8809 36.3476 25.7254 35.4095L26.6327 36.3164C25.8033 37.2457 24.9947 38.1951 24.2188 39.1682ZM129.005 64.9556C128.661 63.7118 128.266 62.4656 127.853 61.2406L129.014 60.8349C129.445 62.0924 129.834 63.3638 130.199 64.6276L129.005 64.9556ZM31.004 31.9569L30.1851 30.956C31.1215 30.1144 32.0906 29.2966 33.0741 28.5239L33.8413 29.5761C32.8761 30.3275 31.9221 31.1365 31.004 31.9569ZM125.466 55.2045C124.938 54.0246 124.359 52.8422 123.767 51.7099L124.85 51.1037C125.46 52.2686 126.048 53.4673 126.581 54.6761L125.466 55.2045ZM38.8479 26.0244L38.1898 24.8984C39.2349 24.2396 40.3279 23.596 41.4201 23.0061L42.0176 24.1673C40.9405 24.7483 39.8778 25.3745 38.8479 26.0244ZM120.503 46.1284C119.805 45.0574 119.056 43.984 118.298 42.9481L119.269 42.1716C120.049 43.2275 120.806 44.3173 121.522 45.4208L120.503 46.1284ZM47.5257 21.5438L47.0461 20.325C48.188 19.8454 49.3682 19.4184 50.5421 19.0165L50.9491 20.2665C49.8055 20.6509 48.6492 21.0854 47.5257 21.5438ZM114.251 37.959C113.393 37.0132 112.507 36.0725 111.596 35.1781L112.429 34.2363C113.36 35.1507 114.267 36.1115 115.134 37.0735L114.251 37.959ZM56.8199 18.6087L56.5244 17.3261C57.7296 17.0557 58.9644 16.8216 60.1865 16.6376L60.4006 17.9352C59.2176 18.118 58.01 18.347 56.8199 18.6087ZM106.849 30.9154C105.862 30.1187 104.845 29.3396 103.815 28.6105L104.487 27.5372C105.538 28.2863 106.579 29.073 107.587 29.8897L106.849 30.9154ZM66.4828 17.3308L66.3858 16.0294C67.6273 15.9732 68.8863 15.9495 70.1326 15.9759L70.1514 17.2798C68.9322 17.2483 67.7003 17.267 66.4828 17.3308ZM98.5131 25.2145C97.4308 24.5906 96.3032 23.9931 95.1868 23.4532L95.6801 22.2696C96.8172 22.8296 97.9568 23.4309 99.075 24.066L98.5131 25.2145ZM76.2648 17.7262L76.3751 16.4224C77.6137 16.5815 78.8667 16.7858 80.1014 17.0114L79.9193 18.2927C78.7085 18.0746 77.4794 17.8779 76.2648 17.7262ZM89.4577 20.9777C88.4891 20.6194 87.5262 20.2899 86.533 19.9779L85.9227 19.7862L86.2276 18.53L86.8619 18.7292C87.8671 19.0449 88.8539 19.3819 89.8345 19.744L89.4577 20.9777Z" fill="url(#paint4_linear_69_1245)"/>
<path d="M138.727 220.357L139.034 219.095C140.215 219.453 141.43 219.78 142.646 220.053L142.411 221.337C141.172 221.057 139.933 220.722 138.727 220.357ZM148.623 222.433L148.718 221.132C149.939 221.284 151.184 221.39 152.399 221.459L152.379 222.77C151.139 222.693 149.87 222.58 148.623 222.433ZM158.662 222.761L158.553 221.45C159.776 221.386 161 221.267 162.218 221.12L162.406 222.429C161.16 222.581 159.912 222.691 158.662 222.761ZM168.553 221.317L168.241 220.038C169.427 219.758 170.615 219.425 171.781 219.072L172.163 220.332C170.981 220.695 169.755 221.029 168.553 221.317ZM178.023 218.153L177.514 216.933C178.637 216.444 179.745 215.91 180.833 215.355L181.403 216.539C180.309 217.119 179.173 217.658 178.023 218.153ZM186.826 213.366L186.137 212.24C187.151 211.567 188.178 210.844 189.16 210.093L189.912 211.171C188.912 211.943 187.87 212.676 186.826 213.366ZM194.722 207.086L193.869 206.099C194.77 205.255 195.648 204.349 196.487 203.444L197.392 204.38C196.535 205.306 195.642 206.221 194.722 207.086ZM201.477 199.47L200.495 198.632C201.242 197.631 201.974 196.584 202.655 195.535L203.692 196.309C202.977 197.388 202.242 198.448 201.477 199.47ZM206.907 190.732L205.814 190.076C206.384 188.952 206.937 187.794 207.438 186.634L208.577 187.209C208.042 188.4 207.484 189.582 206.907 190.732ZM210.843 181.13L209.659 180.677C210.044 179.467 210.398 178.22 210.713 176.975L211.915 177.352C211.594 178.623 211.233 179.895 210.843 181.13ZM211.622 172.819C211.853 171.547 212.048 170.264 212.213 168.998L213.444 169.209C213.286 170.503 213.081 171.824 212.847 173.109L211.622 172.819ZM212.682 162.532C212.711 161.237 212.704 159.931 212.655 158.639L213.901 158.637C213.944 159.954 213.957 161.289 213.933 162.612L212.682 162.532ZM212.103 152.151C211.933 150.875 211.718 149.572 211.469 148.298L212.683 148.068C212.937 149.371 213.158 150.703 213.334 152.008L212.103 152.151ZM209.902 141.98C209.529 140.736 209.12 139.48 208.674 138.267L209.836 137.831C210.287 139.073 210.717 140.348 211.096 141.622L209.902 141.98ZM206.146 132.258C205.588 131.078 204.976 129.908 204.351 128.788L205.419 128.159C206.049 129.308 206.667 130.507 207.246 131.707L206.146 132.258ZM200.932 123.274C200.192 122.199 199.418 121.155 198.635 120.148L199.581 119.332C200.385 120.358 201.177 121.435 201.926 122.526L200.932 123.274ZM136.194 98.6374L135.828 97.3679C137.019 97.022 138.239 96.7126 139.462 96.4448L139.746 97.7293C138.563 97.996 137.37 98.3003 136.194 98.6374ZM194.42 115.266C193.539 114.338 192.612 113.436 191.679 112.559L192.483 111.589C193.44 112.473 194.384 113.408 195.289 114.344L194.42 115.266ZM145.804 96.7662L145.64 95.4653C146.879 95.3383 148.136 95.2441 149.392 95.2039L149.474 96.5199C148.245 96.555 147.016 96.6442 145.804 96.7662ZM186.784 108.468C185.771 107.702 184.724 106.966 183.668 106.267L184.298 105.161C185.379 105.867 186.446 106.623 187.483 107.397L186.784 108.468ZM155.626 96.6186L155.674 95.3026C156.922 95.3958 158.188 95.5218 159.438 95.7106L159.315 97.0165C158.086 96.8478 156.847 96.7169 155.626 96.6186ZM178.221 103.076C177.109 102.496 175.963 101.946 174.817 101.45L175.264 100.246C176.431 100.762 177.601 101.32 178.737 101.907L178.221 103.076ZM165.386 98.2035L165.633 96.9227C166.743 97.2034 167.87 97.5168 168.976 97.8641L169.301 97.9661L168.97 99.2204L168.646 99.1184C167.573 98.795 166.472 98.4766 165.386 98.2035Z" fill="url(#paint5_linear_69_1245)"/>
<path d="M132.213 82.2044L126.503 74.7168L136.074 73.6093L132.213 82.2044Z" fill="url(#paint6_linear_69_1245)"/>
<path d="M130.169 100.1L136.22 92.9381L138.634 102.97L130.169 100.1Z" fill="url(#paint7_linear_69_1245)"/>
<defs>
<linearGradient id="paint0_linear_69_1245" x1="120.005" y1="96.0545" x2="22.1101" y2="71.2866" gradientUnits="userSpaceOnUse">
<stop stop-color="#3596FF"/>
<stop offset="1" stop-color="#B3ACFF"/>
</linearGradient>
<linearGradient id="paint1_linear_69_1245" x1="100.158" y1="89.8192" x2="42.5468" y2="75.2433" gradientUnits="userSpaceOnUse">
<stop stop-color="#3596FF"/>
<stop offset="1" stop-color="#B3ACFF"/>
</linearGradient>
<linearGradient id="paint2_linear_69_1245" x1="201.951" y1="175.321" x2="104.055" y2="150.553" gradientUnits="userSpaceOnUse">
<stop stop-color="#3596FF"/>
<stop offset="1" stop-color="#B3ACFF"/>
</linearGradient>
<linearGradient id="paint3_linear_69_1245" x1="182.103" y1="169.085" x2="124.492" y2="154.51" gradientUnits="userSpaceOnUse">
<stop stop-color="#3596FF"/>
<stop offset="1" stop-color="#B3ACFF"/>
</linearGradient>
<linearGradient id="paint4_linear_69_1245" x1="129.06" y1="87.606" x2="12.5258" y2="58.1163" gradientUnits="userSpaceOnUse">
<stop stop-color="#3596FF"/>
<stop offset="1" stop-color="#B3ACFF"/>
</linearGradient>
<linearGradient id="paint5_linear_69_1245" x1="211.917" y1="177.346" x2="121.385" y2="154.433" gradientUnits="userSpaceOnUse">
<stop stop-color="#3596FF"/>
<stop offset="1" stop-color="#B3ACFF"/>
</linearGradient>
<linearGradient id="paint6_linear_69_1245" x1="134.889" y1="78.1328" x2="126.204" y2="75.8575" gradientUnits="userSpaceOnUse">
<stop stop-color="#3596FF"/>
<stop offset="1" stop-color="#B3ACFF"/>
</linearGradient>
<linearGradient id="paint7_linear_69_1245" x1="139.762" y1="98.6624" x2="131.137" y2="96.4026" gradientUnits="userSpaceOnUse">
<stop stop-color="#3596FF"/>
<stop offset="1" stop-color="#B3ACFF"/>
</linearGradient>
</defs>
</svg>
