<svg width="231" height="236" viewBox="0 0 231 236" fill="none" xmlns="http://www.w3.org/2000/svg">
<path d="M180.765 146.552C181.884 142.131 189.619 139.942 195.655 139.942C196.293 131.906 195.837 123.919 194.361 116.177C188.307 116.498 179.93 114.89 178.705 110.104C177.554 105.603 183.089 99.6058 188.228 96.4048C185.013 89.1194 180.854 82.278 175.877 76.1168C170.879 79.5803 162.998 82.5953 159.695 79.0302C156.594 75.6589 158.45 67.4171 161.306 61.8865C155.24 57.2351 148.495 53.3729 141.199 50.5361C138.611 56.2384 133.327 63.0547 128.835 61.6433C124.612 60.3167 122.286 52.0685 122.09 45.6877C114.459 44.7504 106.91 44.9718 99.6268 46.2792C100.128 52.6902 98.8738 61.5134 94.3865 62.6313C90.1611 63.7007 84.3017 57.6545 81.1026 52.1172C74.3084 55.2777 67.9707 59.4314 62.2986 64.4915C65.7415 69.8875 68.854 78.3174 65.5857 81.6922C62.4943 84.8611 54.6482 82.6359 49.2983 79.4299C45.0915 85.6912 41.6543 92.6954 39.206 100.315C44.6904 103.237 51.3178 109.045 50.1279 113.748C49.0094 118.169 41.2745 120.358 35.2384 120.358C34.5999 128.393 35.0559 136.381 36.5317 144.122C42.5865 143.802 50.9635 145.41 52.1879 150.196C53.3386 154.697 47.8042 160.694 42.6649 163.895C45.8745 171.201 50.0392 178.022 55.0161 184.183C60.0137 180.72 67.8951 177.705 71.1976 181.27C74.2994 184.641 72.4482 192.863 69.5868 198.413C75.6535 203.065 82.3985 206.927 89.6944 209.764C92.3011 204.068 97.5657 197.245 102.058 198.657C106.281 199.983 108.607 208.231 108.798 214.632C116.429 215.57 123.998 215.354 131.261 214.041C130.76 207.63 132.009 198.827 136.501 197.689C140.727 196.619 146.586 202.666 149.785 208.203C156.599 205.048 162.942 200.875 168.594 195.808C165.152 190.412 162.039 181.982 165.307 178.608C168.399 175.439 176.264 177.67 181.595 180.87C185.802 174.609 189.239 167.605 191.687 159.985C186.208 157.043 179.575 151.255 180.765 146.552ZM101.739 184.371C73.1244 175.382 56.072 143.811 63.6507 113.856C71.2295 83.901 100.569 66.9052 129.184 75.8946C157.798 84.8839 174.851 116.454 167.272 146.409C159.693 176.365 130.353 193.36 101.739 184.371Z" fill="url(#paint0_linear_1_8)"/>
<path d="M126.67 85.8254C150.002 93.155 163.964 119.004 157.784 143.429C151.605 167.853 127.582 181.769 104.251 174.44C80.9195 167.11 66.9572 141.261 73.1367 116.836C79.3161 92.4118 103.32 78.4897 126.67 85.8254ZM127.554 82.3333C102.333 74.4101 76.4616 89.3796 69.7765 115.802C63.0965 142.205 78.1169 170.043 103.357 177.972C128.578 185.895 154.449 170.926 161.134 144.503C167.819 118.08 152.775 90.2566 127.554 82.3333Z" fill="url(#paint1_linear_1_8)"/>
<path d="M24.9972 173.064C24.1192 171.113 23.2899 169.134 22.5427 167.159L24.3888 166.434C25.1269 168.363 25.9421 170.315 26.811 172.22L24.9972 173.064ZM19.1822 157.033C18.6196 154.986 18.0864 152.905 17.6354 150.827L19.5692 150.412C20.0112 152.443 20.5302 154.499 21.0837 156.5L19.1822 157.033ZM15.865 140.33C15.6076 138.227 15.4233 136.081 15.2917 133.973L17.2838 133.902C17.4013 135.984 17.6009 138.07 17.8492 140.127L15.865 140.33ZM15.1323 123.351C15.2085 121.244 15.3333 119.108 15.5301 117.016L17.5177 117.292C17.3311 119.344 17.1972 121.433 17.1312 123.501L15.1323 123.351ZM17.031 106.568C17.4254 104.517 17.8877 102.443 18.4028 100.408L20.328 101.013C19.8231 103.008 19.371 105.041 18.9868 107.052L17.031 106.568ZM23.3282 91.2099L21.454 90.4037C22.1564 88.4491 22.9217 86.4926 23.7346 84.5945L25.5589 85.5155C24.7512 87.3935 23.9961 89.3097 23.3282 91.2099ZM30.024 76.4119L28.2891 75.3014C29.2843 73.5041 30.3616 71.7108 31.462 69.99L33.1278 71.2093C32.0375 72.8897 31.0141 74.6347 30.024 76.4119ZM210.799 120.881C210.551 118.823 210.25 116.728 209.871 114.694L211.823 114.372C212.192 116.446 212.507 118.567 212.759 120.691L210.799 120.881ZM38.9631 63.0146L37.4202 61.6381C38.698 60.0383 40.0283 58.4767 41.387 56.9676L42.8466 58.4266C41.5123 59.9217 40.2114 61.449 38.9631 63.0146ZM207.545 104.502C206.992 102.501 206.356 100.496 205.691 98.5251L207.56 97.8724C208.254 99.8956 208.879 101.941 209.466 103.974L207.545 104.502ZM49.8794 51.4128L48.5619 49.8027C50.0684 48.4487 51.6275 47.133 53.2098 45.8898L54.444 47.5826C52.8911 48.7915 51.3564 50.0931 49.8794 51.4128ZM201.852 88.8141C201.002 86.9159 200.07 85.0136 199.118 83.1919L200.861 82.2167C201.841 84.0908 202.787 86.0193 203.646 87.9639L201.852 88.8141ZM62.4987 41.8686L61.44 40.057C63.1214 38.9972 64.8798 37.9616 66.637 37.0127L67.5983 38.8808C65.8654 39.8156 64.1557 40.823 62.4987 41.8686ZM193.867 74.2123C192.744 72.4893 191.54 70.7623 190.319 69.0957L191.882 67.8465C193.136 69.5453 194.355 71.2985 195.506 73.0739L193.867 74.2123ZM76.4597 34.66L75.6882 32.6993C77.5252 31.9277 79.424 31.2407 81.3126 30.5941L81.9675 32.6052C80.1276 33.2236 78.2673 33.9227 76.4597 34.66ZM183.809 61.0691C182.428 59.5476 181.003 58.0342 179.538 56.5953L180.877 55.0801C182.375 56.5512 183.834 58.0969 185.229 59.6446L183.809 61.0691ZM91.4125 29.9381L90.9371 27.8746C92.8761 27.4395 94.8625 27.0629 96.8286 26.7669L97.1732 28.8545C95.27 29.1485 93.3271 29.5171 91.4125 29.9381ZM171.9 49.7374C170.313 48.4556 168.677 47.2021 167.02 46.0292L168.101 44.3024C169.791 45.5075 171.466 46.7732 173.087 48.0871L171.9 49.7374ZM106.958 27.8821L106.802 25.7885C108.8 25.698 110.825 25.6599 112.83 25.7024L112.861 27.8C110.899 27.7495 108.917 27.7795 106.958 27.8821ZM158.489 40.5656C156.748 39.5619 154.934 38.6006 153.138 37.7319L153.931 35.8278C155.761 36.7287 157.594 37.6961 159.393 38.7179L158.489 40.5656ZM122.696 28.5183L122.873 26.4206C124.866 26.6767 126.882 27.0054 128.868 27.3683L128.575 29.4296C126.627 29.0788 124.65 28.7623 122.696 28.5183ZM143.921 33.7493C142.363 33.1729 140.813 32.6428 139.215 32.1409L138.234 31.8325L138.724 29.8114L139.745 30.1319C141.362 30.6398 142.949 31.182 144.527 31.7645L143.921 33.7493Z" fill="url(#paint2_linear_1_8)"/>
<path d="M212.708 132.252L203.522 120.206L218.919 118.424L212.708 132.252Z" fill="url(#paint3_linear_1_8)"/>
<defs>
<linearGradient id="paint0_linear_1_8" x1="193.066" y1="154.535" x2="35.5698" y2="114.687" gradientUnits="userSpaceOnUse">
<stop stop-color="#3596FF"/>
<stop offset="1" stop-color="#B3ACFF"/>
</linearGradient>
<linearGradient id="paint1_linear_1_8" x1="161.134" y1="144.503" x2="68.4481" y2="121.053" gradientUnits="userSpaceOnUse">
<stop stop-color="#3596FF"/>
<stop offset="1" stop-color="#B3ACFF"/>
</linearGradient>
<linearGradient id="paint2_linear_1_8" x1="207.634" y1="140.942" x2="20.1512" y2="93.4987" gradientUnits="userSpaceOnUse">
<stop stop-color="#3596FF"/>
<stop offset="1" stop-color="#B3ACFF"/>
</linearGradient>
<linearGradient id="paint3_linear_1_8" x1="217.012" y1="125.702" x2="203.041" y2="122.041" gradientUnits="userSpaceOnUse">
<stop stop-color="#3596FF"/>
<stop offset="1" stop-color="#B3ACFF"/>
</linearGradient>
</defs>
</svg>
