<svg width="64" height="80" viewBox="0 0 64 80" fill="none" xmlns="http://www.w3.org/2000/svg">
<path d="M26.6137 0.294121C25.9523 0.758255 25.7079 1.33068 25.2047 3.52759C24.8308 5.183 24.6727 5.63166 24.4426 5.73996C24.2845 5.80185 23.393 6.2041 22.4728 6.62182L20.7906 7.37991L19.0365 6.25051C16.9948 4.95094 16.4771 4.79622 15.5713 5.22942C14.7374 5.64714 9.37435 11.4333 9.05803 12.2843C8.71296 13.1816 8.88549 13.8004 10.0501 15.92L11.0997 17.8075L10.3952 19.6176C10.007 20.6077 9.63316 21.5824 9.56127 21.7526C9.46062 22.0311 9.10117 22.1703 7.51957 22.588C5.43474 23.1295 4.874 23.408 4.50016 24.1042C4.27011 24.5219 4.24136 25.0789 4.24136 29.3953C4.24136 35.6457 4.0832 35.3053 7.51957 36.2027C9.10117 36.6204 9.46062 36.7596 9.56127 37.0381C9.63316 37.2083 10.007 38.183 10.3952 39.1731L11.0997 40.9832L10.0501 42.8707C8.88549 44.9903 8.71296 45.6091 9.05803 46.5064C9.37435 47.3573 14.7374 53.1436 15.5713 53.5613C16.4771 53.9945 16.9948 53.8398 19.0365 52.5402L20.7906 51.4108L22.4728 52.1689C23.393 52.5866 24.2845 52.9888 24.4426 53.0507C24.6727 53.159 24.8165 53.5613 25.1472 55.0156C25.636 57.2744 25.9811 58.0634 26.585 58.4811C27.0451 58.7751 27.2895 58.7905 31.5598 58.7905C35.8301 58.7905 36.0745 58.7751 36.5346 58.4811C37.1385 58.0634 37.4836 57.2744 37.9725 55.0156C38.3032 53.5613 38.4469 53.159 38.677 53.0507C38.8351 52.9888 39.7266 52.5866 40.6468 52.1689L42.329 51.4108L44.0832 52.5402C46.1249 53.8398 46.6425 53.9945 47.5483 53.5613C48.3822 53.1436 53.7453 47.3573 54.0616 46.5064C54.4067 45.6091 54.2341 44.9903 53.0695 42.8707L52.0199 40.9832L52.7244 39.1731C53.1126 38.183 53.4865 37.2237 53.544 37.0536C53.6446 36.806 54.0184 36.6513 55.37 36.2955C57.4692 35.7695 58.2025 35.3982 58.5907 34.7484C58.8639 34.2533 58.8783 33.9903 58.8783 29.3953C58.8783 24.8004 58.8639 24.5374 58.5907 24.0423C58.2025 23.3925 57.4692 23.0212 55.37 22.4952C54.0184 22.1394 53.6446 21.9847 53.544 21.7371C53.4865 21.5669 53.1126 20.6077 52.7244 19.6176L52.0199 17.8075L53.0695 15.92C54.2773 13.7231 54.421 13.1661 54.0184 12.1914C53.6302 11.2941 48.2528 5.52337 47.462 5.183C46.6281 4.8117 46.053 4.99735 44.0832 6.25051L42.329 7.37991L40.6468 6.62182C39.7266 6.2041 38.8351 5.80185 38.677 5.73996C38.4469 5.63166 38.3032 5.22942 37.9725 3.77513C37.4836 1.54728 37.1241 0.680897 36.5346 0.294121C36.1177 0.0156403 35.7582 0.000167847 31.5598 0.000167847C27.3614 0.000167847 27.0019 0.0311089 26.6137 0.294121ZM33.8316 18.9678C37.2679 19.7414 40.3017 22.9284 41.1932 26.7034C42.5591 32.4122 39.3384 38.3067 34.0472 39.7765C28.7705 41.2462 23.2636 37.7498 21.9265 32.0873C20.7762 27.2913 22.8898 22.1858 26.9444 19.9115C29.1011 18.6893 31.2435 18.3954 33.8316 18.9678Z" fill="url(#paint0_linear_69_1447)"/>
<path d="M19.8418 57.1815C18.9648 57.7229 17.9727 58.0942 17.0093 58.249L16.463 58.3418V61.0802V63.8186L12.8828 65.9536L9.30265 68.0886L8.7419 67.7018C7.77857 67.0211 6.82961 66.789 5.34867 66.8664C4.24155 66.9128 3.86772 67.0056 3.14881 67.3769C2.05607 67.9494 0.963335 69.1406 0.416966 70.3165C0.0287563 71.1828 0 71.3685 0 73.0239C0 74.6793 0.0287563 74.865 0.416966 75.7314C0.963335 76.9226 2.05607 78.0984 3.16319 78.6863C3.96836 79.1041 4.1409 79.135 5.67936 79.135C7.21782 79.135 7.39036 79.1041 8.19554 78.6863C9.28827 78.0984 10.3954 76.9226 10.9274 75.7468C11.2437 75.0352 11.3587 74.5556 11.4019 73.5809L11.4594 72.3277L12.207 71.879C18.1883 68.3516 20.23 67.052 20.4888 66.5879C20.762 66.1238 20.7764 65.8453 20.7476 61.3741L20.7045 56.64L19.8418 57.1815Z" fill="url(#paint1_linear_69_1447)"/>
<path d="M42.3428 61.3587C42.3428 65.8144 42.3572 66.1392 42.6303 66.6034C42.846 66.9902 43.8525 67.6554 47.2889 69.7131L51.6598 72.3277L51.7173 73.5809C51.7604 74.5555 51.8755 75.0352 52.1918 75.7468C52.7238 76.9226 53.8309 78.0984 54.9236 78.6863C55.7288 79.1041 55.9014 79.135 57.4398 79.135C58.9783 79.135 59.1508 79.1041 59.956 78.6863C61.0631 78.0984 62.1558 76.9226 62.7022 75.7314C63.0904 74.865 63.1192 74.6793 63.1192 73.0239C63.1192 71.3685 63.0904 71.1828 62.7022 70.3165C62.1558 69.1406 61.0631 67.9494 59.9704 67.3769C59.2515 67.0056 58.8776 66.9128 57.7705 66.8664C56.2896 66.789 55.3406 67.0211 54.3773 67.7018L53.8309 68.0886L50.2507 65.9536L46.6562 63.8186V61.0802V58.3418L46.1242 58.249C45.0602 58.0788 44.4132 57.8312 43.3924 57.2279L42.3428 56.609V61.3587Z" fill="url(#paint2_linear_69_1447)"/>
<path d="M29.4025 65.2729V67.0985L28.5542 67.6709C27.5334 68.3361 26.8145 69.218 26.2681 70.3938C25.9086 71.1674 25.8799 71.3994 25.8799 73.0239C25.8799 74.6793 25.9086 74.865 26.2968 75.7314C26.8432 76.9226 27.936 78.0984 29.0431 78.6863C29.8482 79.1041 30.0208 79.135 31.5592 79.135C33.0977 79.135 33.2702 79.1041 34.0754 78.6863C35.1825 78.0984 36.2753 76.9226 36.8216 75.7314C37.2099 74.865 37.2386 74.6793 37.2386 73.0239C37.2386 71.3994 37.2099 71.1674 36.8504 70.3938C36.304 69.218 35.5851 68.3361 34.5643 67.6709L33.716 67.0985V65.2729V63.4318H31.5592H29.4025V65.2729Z" fill="url(#paint3_linear_69_1447)"/>
<defs>
<linearGradient id="paint0_linear_69_1447" x1="58.8783" y1="29.3953" x2="4.24023" y2="29.3953" gradientUnits="userSpaceOnUse">
<stop stop-color="#3596FF"/>
<stop offset="1" stop-color="#B3ACFF"/>
</linearGradient>
<linearGradient id="paint1_linear_69_1447" x1="20.7581" y1="67.8875" x2="0" y2="67.8875" gradientUnits="userSpaceOnUse">
<stop stop-color="#3596FF"/>
<stop offset="1" stop-color="#B3ACFF"/>
</linearGradient>
<linearGradient id="paint2_linear_69_1447" x1="63.1192" y1="67.872" x2="42.3428" y2="67.872" gradientUnits="userSpaceOnUse">
<stop stop-color="#3596FF"/>
<stop offset="1" stop-color="#B3ACFF"/>
</linearGradient>
<linearGradient id="paint3_linear_69_1447" x1="37.2386" y1="71.2834" x2="25.8799" y2="71.2834" gradientUnits="userSpaceOnUse">
<stop stop-color="#3596FF"/>
<stop offset="1" stop-color="#B3ACFF"/>
</linearGradient>
</defs>
</svg>
