<svg width="64" height="52" viewBox="0 0 64 52" fill="none" xmlns="http://www.w3.org/2000/svg">
<path d="M31.9507 24.0226C35.2635 24.0501 35.7863 24.0915 36.7486 24.3527C38.0132 24.7101 40.3224 25.7815 41.2847 26.4825C42.893 27.651 44.5423 29.5346 45.4771 31.2804C46.5355 33.2323 46.7965 34.3045 47.69 40.545C48.1848 43.9403 48.5154 46.5801 48.4741 46.965C48.4054 47.8032 48.1028 48.216 47.0308 48.9445C45.3813 50.0579 42.3295 50.9788 38.5493 51.4874C36.6386 51.7486 35.717 51.7892 31.607 51.7892C26.6313 51.7892 25.0367 51.6656 21.9165 51.0333C18.8789 50.4148 15.9788 49.1503 15.1675 48.0919C14.9613 47.817 14.782 47.3633 14.7408 47.0196C14.6995 46.6897 15.0301 43.995 15.5249 40.5997C16.3909 34.5519 16.6658 33.3423 17.5318 31.6378C19.4012 27.9265 23.0434 25.1085 27.0708 24.2286C28.088 24.0087 28.7482 23.9813 31.9507 24.0226ZM50.5904 23.9816C52.0062 23.9678 52.5699 24.0221 53.6421 24.297C57.5596 25.3004 60.7484 28.2287 62.0406 32.0499C62.2192 32.5585 62.5627 34.1119 62.8101 35.4864C63.2224 37.7131 63.2503 38.0434 63.0991 38.5519C62.8792 39.2804 61.8342 40.3254 60.6245 41.0265C59.5522 41.6588 57.2154 42.442 55.5386 42.7169C54.1502 42.9506 50.8517 43.1707 50.8511 43.0333C50.8511 42.3324 49.5188 34.1005 49.2574 33.2189C48.57 30.8133 47.1259 28.3521 45.2427 26.2902L44.5425 25.5206L45.3941 25.1085C46.37 24.6274 47.03 24.4077 48.1021 24.1603C48.5145 24.0778 49.6419 23.9953 50.5904 23.9816ZM9.51712 24.3107C12.1289 23.6371 15.4421 23.9403 17.7652 25.0675L18.6724 25.5206L17.9712 26.2902C16.088 28.3521 14.6449 30.8133 13.9575 33.2189C13.6962 34.1002 12.3628 42.3324 12.3628 43.0333C12.3612 43.0744 11.5923 43.0746 10.6587 43.0196C6.30122 42.786 2.90528 41.6722 1.00833 39.8302C-0.104824 38.7582 -0.132214 38.5103 0.403837 35.5001C0.884919 32.7649 1.22891 31.6104 1.98489 30.1671C3.44193 27.3905 6.35563 25.1217 9.51712 24.3107ZM12.7759 6.41418C14.6453 6.46917 15.4837 6.70279 16.8033 7.51379C17.3943 7.87118 17.4628 7.96717 17.3941 8.28332C16.7068 11.5272 17.0781 14.7851 18.48 17.7404C18.8374 18.4964 19.0711 19.1703 19.0298 19.3077C18.8782 19.7753 17.1884 21.1908 16.1851 21.6857C14.1782 22.6754 12.0608 22.8262 9.9302 22.1114C4.377 20.2419 2.59025 13.2039 6.60403 8.91516C7.63482 7.82948 8.54193 7.23808 9.95755 6.74328C10.9748 6.38589 11.1814 6.37294 12.7759 6.41418ZM48.5425 6.59289C49.5047 6.33172 51.8147 6.31805 52.7769 6.57922C56.4332 7.55529 59.045 11.1841 58.77 14.923C58.5225 18.3042 56.4195 21.0529 53.272 22.1114C51.1551 22.8262 49.0377 22.6754 47.0308 21.6857C46.0273 21.1908 44.3363 19.7751 44.1851 19.3077C44.1438 19.1703 44.3775 18.4964 44.7349 17.7404C45.7658 15.5822 46.0825 14.1251 46.0962 11.5958C46.11 10.1939 46.0412 9.2176 45.9175 8.72278C45.7389 7.99459 45.7391 7.98091 46.0552 7.73352C46.5501 7.34871 47.7179 6.81288 48.5425 6.59289ZM32.02 0.516721C33.518 0.557957 33.9166 0.627125 35.0435 0.998166C36.6655 1.54801 37.9444 2.29009 39.1128 3.38977C40.7348 4.90181 41.7935 6.68887 42.3433 8.81946C42.7006 10.2352 42.7006 12.6405 42.3433 14.1388C41.4086 18.0013 38.5768 20.9566 34.7007 22.1251C33.6148 22.4413 33.229 22.4962 31.607 22.4962C29.9853 22.4962 29.6 22.4412 28.5142 22.1251C24.638 20.9566 21.8063 18.0013 20.8716 14.1388C20.5143 12.6405 20.5143 10.2353 20.8716 8.81946C21.7926 5.23178 24.3355 2.3858 27.772 1.13488C28.3767 0.914988 29.2015 0.667536 29.5865 0.598752C29.9851 0.530023 31.0716 0.489228 32.02 0.516721Z" fill="url(#paint0_linear_69_1504)"/>
<defs>
<linearGradient id="paint0_linear_69_1504" x1="63.1833" y1="26.1486" x2="0.0644531" y2="26.1486" gradientUnits="userSpaceOnUse">
<stop stop-color="#3596FF"/>
<stop offset="1" stop-color="#B3ACFF"/>
</linearGradient>
</defs>
</svg>
